<?xml version="1.0" encoding="UTF-8"?>
<svg width="134px" height="22px" viewBox="0 0 134 22" version="1.1" xmlns="http://www.w3.org/2000/svg" xmlns:xlink="http://www.w3.org/1999/xlink">
    <title>logo-awwwards</title>
    <g id="logo-awwwards" stroke="none" stroke-width="1" fill="none" fill-rule="evenodd">
        <g id="Awwards-logotype-2018" fill="#FFFFFF" fill-rule="nonzero">
            <path d="M0.570212778,9.97872362 C1.04539009,7.50780158 3.23120574,5.79716325 6.27234056,5.79716325 C9.78865269,5.79716325 12.5446811,7.31773066 12.5446811,12.0695038 L12.5446811,20.9078019 L9.50354631,20.9078019 L9.12340445,19.0070926 C8.07801436,20.3375891 6.65248241,21.1929083 4.56170223,21.1929083 C1.99574472,21.1929083 0,19.5773054 0,16.631206 C0,13.6851067 2.66099297,11.7843974 6.36737602,11.7843974 L8.83829806,11.7843974 L8.83829806,11.1191492 C8.83829806,9.40851084 7.60283704,8.93333353 6.1773051,8.93333353 C5.131915,8.93333353 4.08652491,9.31347538 3.6113476,10.6439719 L0.570212778,9.97872362 Z M5.41702139,18.056738 C7.12765973,18.056738 8.83829806,16.9163124 8.83829806,15.0156032 L8.83829806,14.7304968 L6.46241149,14.7304968 C4.84680862,14.6354613 3.89645399,15.3007096 3.89645399,16.631206 C3.89645399,17.2964543 4.46666676,18.056738 5.41702139,18.056738 Z" id="logo-a1"></path>
            <path d="M72.2269519,9.97872362 C72.7021292,7.50780158 74.8879449,5.79716325 77.9290797,5.79716325 C81.4453918,5.79716325 84.2014203,7.31773066 84.2014203,12.0695038 L84.2014203,20.9078019 L81.1602854,20.9078019 L80.7801436,19.0070926 C79.7347535,20.3375891 78.3092216,21.1929083 76.2184414,21.1929083 C73.6524839,21.1929083 71.6567391,19.5773054 71.6567391,16.631206 C71.6567391,13.6851067 74.3177321,11.7843974 78.0241152,11.7843974 L80.4950372,11.7843974 L80.4950372,11.1191492 C80.4950372,9.40851084 79.2595762,8.93333353 77.8340442,8.93333353 C76.7886541,8.93333353 75.7432641,9.31347538 75.2680867,10.6439719 L72.2269519,9.97872362 Z M77.0737605,18.056738 C78.7843989,18.056738 80.4950372,16.9163124 80.4950372,15.0156032 L80.4950372,14.7304968 L78.0241152,14.7304968 C76.4085123,14.7304968 75.4581577,15.3007096 75.4581577,16.631206 C75.5531931,17.2964543 76.1234059,18.056738 77.0737605,18.056738 Z" id="logo-a2"></path>
            <path d="M87.5276615,21.0028373 L87.5276615,5.98723417 L91.2340445,5.98723417 L91.2340445,8.45815621 C92.2794346,6.65248241 93.990073,5.79716325 95.6056758,5.79716325 C96.2709241,5.79716325 96.8411369,5.89219871 97.4113496,6.08226964 L96.7461014,9.50354631 C96.2709241,9.21843992 95.7957468,9.02836899 95.225534,9.02836899 C93.0397183,9.02836899 91.2340445,10.8340428 91.2340445,15.5858159 L91.2340445,20.9078019 L87.5276615,21.0028373 L87.5276615,21.0028373 Z" id="logo-r"></path>
            <path d="M105.299293,5.79716325 C106.81986,5.79716325 108.245392,6.55744695 108.910641,7.41276612 L108.910641,0 L112.617024,0 L112.617024,21.0028373 L108.910641,21.0028373 L108.910641,19.4822699 C108.435463,20.2425536 107.104967,21.2879437 105.299293,21.2879437 C100.832626,21.2879437 98.5517752,18.1517734 98.5517752,13.5900712 C98.5517752,9.02836899 100.832626,5.79716325 105.299293,5.79716325 Z M105.869506,18.056738 C107.770215,18.056738 109.290783,16.4411351 109.290783,13.4950358 C109.290783,10.5489364 107.770215,8.93333353 105.869506,8.93333353 C103.968797,8.93333353 102.448229,10.5489364 102.448229,13.4950358 C102.448229,16.4411351 103.968797,18.056738 105.869506,18.056738 Z" id="logo-d"></path>
            <path d="M125.921989,8.17304982 L123.736173,10.1687945 C123.070925,9.21843992 122.025535,8.83829806 121.265251,8.83829806 C120.504967,8.83829806 119.839719,9.31347538 119.839719,10.0737591 C119.839719,10.7390073 120.409932,11.2141846 121.265251,11.499291 C123.356031,12.2595747 126.682272,12.924823 126.682272,16.0609933 C126.682272,18.8170217 124.591492,21.0028373 121.360286,21.0028373 C118.224116,21.0028373 116.133336,18.8170217 115.468088,17.0113479 L118.414187,15.395745 C118.9844,16.821277 119.934754,17.8666671 121.455322,17.8666671 C122.595747,17.8666671 123.356031,17.2964543 123.356031,16.2510642 C123.356031,15.0156032 121.455322,14.7304968 119.649648,13.9702131 C118.034045,13.3049648 116.608513,12.2595747 116.608513,9.97872362 C116.608513,7.69787251 118.509222,5.60709232 121.360286,5.60709232 C123.260996,5.70212778 125.066669,6.74751788 125.921989,8.17304982 Z" id="logo-s"></path>
            <polygon id="logo-w2" points="49.3234053 5.98723417 46.6624124 16.3460996 44.0964549 5.98723417 40.6751782 5.98723417 38.2042561 16.3460996 36.113476 10.3588655 35.8283696 11.0241137 34.687944 14.9205677 36.5886533 21.0028373 39.819859 21.0028373 42.3858165 11.3092201 44.951774 21.0028373 48.2780152 21.0028373 53.0297884 5.98723417"></polygon>
            <polygon id="logo-w3" points="67.0950369 5.98723417 64.4340439 16.3460996 61.8680864 5.98723417 58.4468098 5.98723417 55.9758877 16.3460996 53.8851076 10.3588655 53.6000012 11.0241137 52.3645401 14.9205677 54.3602849 21.0028373 57.5914906 21.0028373 60.1574481 11.3092201 62.7234056 21.0028373 65.9546114 21.0028373 70.80142 5.98723417"></polygon>
            <polygon id="logo-w1" points="35.2581568 5.98723417 30.5063836 20.9078019 27.2751779 20.9078019 24.7092204 11.3092201 22.1432629 21.0028373 18.9120571 21.0028373 14.160284 6.08226964 17.8666671 6.08226964 20.52766 16.3460996 23.0936175 6.08226964 26.5148942 6.08226964 29.0808517 16.3460996 31.7418447 6.08226964"></polygon>
            <path d="M131.529081,16.1560287 C132.954613,16.1560287 134.000003,17.2014188 134.000003,18.6269508 C134.000003,20.0524827 132.954613,21.0978728 131.529081,21.0978728 C130.103549,21.0978728 129.058159,20.0524827 129.058159,18.6269508 C129.058159,17.2014188 130.103549,16.1560287 131.529081,16.1560287 Z" id="logo-p"></path>
        </g>
    </g>
</svg>