<svg height="190" viewBox="0 0 630 190" width="630" xmlns="http://www.w3.org/2000/svg"><path d="m375.781775 97.7670546h15.704758v3.5960034h-15.704758zm-261.220541-21.8095274-1.403767 36.0929538v.626876c0 3.055345.909815 3.685813 5.834804 4.030685v1.672267c-3.584782-.273023-4.995813-.343075-6.960723-.343075-1.970359 0-3.375942.070052-7.031548.343075v-1.672267c4.919541-.344872 5.625964-.903492 5.765796-4.657561l1.476407-34.1422746v-.411331c0-3.2044307-.986087-3.897766-5.832988-4.1743817v-1.7423193c2.73671.210156 3.791806.280208 5.762165.280208 2.60051 0 4.006093-.070052 6.681059-.3430752l13.07156 35.1804808 13.284032-35.1804808c3.168918.2730232 4.643509.3430752 6.7537.3430752 1.750623 0 2.880174-.070052 5.549692-.280208v1.7423193c-4.777893.2766157-5.838436.969951-5.838436 4.098941v.4867717l.775431 34.1422746c.076272 3.754069.704608 4.307301 5.767613 4.657561v1.672267c-4.427406-.41672-6.1181-.560416-8.787619-.560416-2.674966 0-4.362029.136512-8.789434.560416v-1.672267c4.777893-.27482 5.832988-1.043596 5.832988-4.305505v-.343075l-.62652-36.0229017-11.604232 31.0096917-.840808 2.297347-.984271 2.568574-.918896 2.651199-.771799 2.291959h-1.055095l-.769984-2.223703-.987903-2.719455-.982456-2.708678-.844439-2.432062zm52.785639 22.4597538c.704608-7.9949108 3.37231-12.0920555 7.872355-12.0920555 4.570869 0 6.8899 3.8923773 7.309395 12.0920555zm9.141738 18.217116c-6.397764 0-9.214378-4.867717-9.277938-15.715002h20.949363c-.143464-10.7071808-4.572685-16.4101333-12.869984-16.4101333-8.429867 0-13.705343 6.7465479-13.705343 17.4555253 0 10.707181 5.277292 16.963365 14.340943 16.963365 6.889899 0 11.391761-4.244434 12.29976-11.404109h-2.814798c-.842624 5.909516-3.93527 9.110354-8.922003 9.110354zm15.85367-29.552969v-1.2483629c4.004278-.3466676 6.397764-.7633873 9.277939-1.6004191.352303 2.5757587.492135 3.6840175.631967 5.7730046v.7669797c1.550863-3.9642256 4.567237-6.2615724 8.226475-6.2615724 3.512142 0 6.116284 2.2973468 6.116284 5.6382891 0 2.0171388-1.194927 3.3355536-2.952814 3.3355536-1.616239 0-2.880174-.9753395-2.880174-2.3620102 0-.1383078.07264-.4113311.1362-.7005202l.139832-.6915391v-.6322643c0-.9735434-.84444-1.6668787-2.110191-1.6668787-3.650158 0-5.969188 4.379149-5.969188 11.2640047v14.5295062c0 2.996071.699159 3.551099 4.990365 3.757662v1.392059c-3.87171-.343075-5.346301-.420312-7.80698-.420312-2.529686 0-4.004277.077237-7.868723.420312v-1.392059c4.283942-.206563 5.057557-.761591 5.057557-3.757662v-21.6209255-1.1082588c-.067192-2.9924784-.423127-3.3355537-4.073285-3.4091981zm51.145792-3.1918572v11.475957h-1.550863c-1.265751-6.0550088-3.864445-8.9738427-8.150203-8.9738427-5.277292 0-8.366306 5.6364929-8.366306 15.5784909 0 9.731841 2.740342 14.66961 8.152019 14.66961 4.358397 0 6.958907-3.057142 7.803347-9.173222h2.880174c-.915264 7.44168-4.921357 11.472365-11.244665 11.472365-8.155651 0-13.705344-6.8166-13.705344-16.963365 0-10.3659019 5.620517-17.4555251 13.916-17.4555251 3.023638 0 4.921357.7669798 7.175011 2.9224264l1.892271-3.5475059h1.200375v-.0053886zm11.542489 14.5277102c.702792-7.9949108 3.370494-12.0920555 7.872355-12.0920555 4.569053 0 6.888084 3.8923773 7.305764 12.0920555zm9.138106 18.217116c-6.397764 0-9.207114-4.867717-9.277938-15.715002h20.945731c-.139832-10.7071808-4.572685-16.4101333-12.860904-16.4101333-8.440763 0-13.714423 6.7465479-13.714423 17.4555253 0 10.707181 5.271844 16.963365 14.346391 16.963365 6.888083 0 11.388129-4.244434 12.297944-11.404109h-2.811166c-.842624 5.909516-3.93527 9.110354-8.925635 9.110354zm31.135301.422109c-5.061189 0-7.730707-5.219774-7.730707-15.156383 0-10.0767125 2.458862-15.0162776 7.521867-15.0162776 5.204653 0 7.875987 5.2826404 7.875987 15.5102346-.001816 9.654605-2.604142 14.662426-7.667147 14.662426zm13.215024-5.914905v-40.141601c-3.513958.9304345-6.673796 1.4818696-10.609066 1.8985892v1.1854957c4.427406 0 4.990365.4867717 4.990365 4.1007372v12.1656999c-2.60051-4.168993-4.639877-5.4245406-8.437131-5.4245406-7.520051 0-12.795528 7.0213673-12.795528 17.0334166 0 10.013846 5.339037 17.029825 13.006184 17.029825 4.006094 0 6.748252-1.806983 8.714979-5.697564.279664 2.642218.279664 2.918834.986087 5.55746 2.878358-.905288 4.076918-1.181903 8.224659-1.666879l1.053279-.136512v-1.181903c-4.710701-.138308-5.133828-.481383-5.133828-4.722224zm13.563695-12.72432c.702792-7.9949108 3.37231-12.0920555 7.874171-12.0920555 4.569053 0 6.884452 3.8923773 7.305764 12.0920555zm9.139922 18.217116c-6.401396 0-9.207114-4.867717-9.28157-15.715002h20.947547c-.141648-10.7071808-4.569053-16.4101333-12.860904-16.4101333-8.440762 0-13.710791 6.7465479-13.710791 17.4555253 0 10.707181 5.270029 16.963365 14.342759 16.963365 6.888084 0 11.386313-4.244434 12.296128-11.404109h-2.812982c-.837176 5.909516-3.93527 9.110354-8.920187 9.110354zm17.635165 2.365603v-11.616061l1.547231-.06646c1.26212 6.329829 4.21675 9.390563 9.139923 9.390563 4.142293 0 7.238571-2.714067 7.238571-6.252592 0-2.363806-1.332943-3.960633-4.783341-5.494592l-2.669518-1.185496-3.232478-1.458519c-5.137461-2.3620101-6.751884-4.3108931-6.751884-8.3451707 0-5.4945926 4.354765-9.2432735 10.545506-9.2432735 2.742158 0 4.785157.6250795 7.171379 2.2165176l1.191295-2.848782h1.265752v10.7772331h-1.619871c-.637416-5.5646447-2.952815-8.2014744-7.378404-8.2014744-3.724614 0-6.613868 2.5039105-6.613868 5.7712083 0 2.77873 1.055096 3.68761 7.45286 6.4663399l2.95463 1.2555477c5.33722 2.28657 7.242203 4.517457 7.242203 8.621786 0 5.841261-4.712517 10.006661-11.313673 10.006661-3.23611 0-5.767612-.835235-8.43713-2.918834l-1.694327 3.125398h-1.256672zm61.79481-23.9901209c3.722797 0 5.831172.628672 7.451043 2.2237025 1.618055 1.6058077 2.535135 4.5928974 2.535135 7.9248584 0 6.953112-3.519406 10.850878-9.773706 10.850878h-2.529687c-3.728245 0-4.358397-.560416-4.358397-3.619354v-17.3854735zm-6.68106-21.0694907h5.976452c5.905629 0 8.504323 2.8559668 8.504323 9.3187142 0 3.1972459-.7718 5.4963889-2.317215 7.2979831-1.547231 1.7441155-3.443133 2.2937544-7.376587 2.2937544h-4.781525v-18.9122479h-.005448zm20.735075 9.1786102c0-3.6157617-1.543599-6.8094151-4.216749-8.8319425-2.386223-1.7369307-5.124749-2.4985219-9.701066-2.4985219h-18.486869v1.7369308c5.064821.280208 5.763981.8352355 5.763981 4.589305v33.720166c0 3.755866-.566592 4.237249-5.763981 4.661154v1.672267h17.784077c5.199205 0 8.015819-.630468 10.970449-2.437451 3.512142-2.223702 5.831173-6.46634 5.831173-10.838304 0-3.763051-1.618055-7.1668601-4.358398-9.2450699-1.472775-1.1118512-3.021822-1.7459118-5.55514-2.2272949 5.066637-1.8860157 7.732523-5.4335216 7.732523-10.3012386zm13.656311 15.2982824c.706424-7.9949108 3.375942-12.0920555 7.877804-12.0920555 4.565421 0 6.888083 3.8923773 7.305763 12.0920555zm9.143555 18.217116c-6.397764 0-9.214379-4.867717-9.28157-15.715002h20.951178c-.141647-10.7071808-4.572685-16.4101333-12.868168-16.4101333-8.435314 0-13.708975 6.7465479-13.708975 17.4555253 0 10.707181 5.273661 16.963365 14.339127 16.963365 6.888084 0 11.388129-4.244434 12.301576-11.404109h-2.812982c-.837175 5.909516-3.929821 9.110354-8.920186 9.110354zm15.386958-29.2763534v-1.1765146c4.078734-.5604161 6.468588-1.1118512 9.276122-2.0871908.355936 1.6058077.568408 3.4074019.704608 6.0496202 2.533318-3.757662 5.411676-5.4209483 9.492226-5.4209483 4.220381 0 7.870539 2.1464656 9.28157 5.5574599.706424 1.6722673 1.056911 3.6157617 1.056911 6.2543876v16.6885454c0 2.992478.702792 3.547506 4.986733 3.75407v1.392059c-3.724613-.35026-5.12838-.41672-7.659883-.41672-2.605958 0-4.007909.06646-7.667147.41672v-1.392059c3.795438-.13292 4.710701-.831644 4.710701-3.61217v-17.037009c0-6.047824-1.826895-8.4852749-6.323308-8.4852749-4.785157 0-7.313027 2.9942746-7.313027 8.6918385v16.8304454c0 2.780526.918895 3.47925 4.576317 3.61217v1.392059c-3.657422-.35026-5.061189-.41672-7.594508-.41672-2.460678 0-3.940717.06646-7.594507.41672v-1.392059c4.283941-.206564 4.990365-.761592 4.990365-3.75407v-21.4880065-1.0346144c-.070824-2.857763-.492136-3.269094-4.004277-3.269094-.21792 0-.564776-.0736445-.918896-.0736445zm37.529433 30.8103134 19.049828-31.0132846h-8.647787c-4.565421 0-5.696788.969951-8.224659 7.2297272h-1.400135l1.618055-9.0385061h24.181841l-19.122468 31.0114885h8.221027c4.785157 0 6.750068-1.873443 8.860258-8.205067h1.476407l-1.825079 10.015642z" fill="#fff"/></svg>