<?xml version="1.0" encoding="UTF-8"?>
<svg width="191px" height="29px" viewBox="0 0 191 29" version="1.1" xmlns="http://www.w3.org/2000/svg" xmlns:xlink="http://www.w3.org/1999/xlink">
    <title>logo-CSS</title>
    <g id="logo-CSS" stroke="none" stroke-width="1" fill="none" fill-rule="evenodd">
        <path d="M16.2693378,4.82604592 L21.023365,9.54484638 L25.7773924,14.3708923 L30.5314196,19.0896927 L25.7773924,23.9157387 L21.023365,28.6345392 L11.5153105,28.6345392 L21.023365,19.0896927 L11.6209556,9.54484638 L16.2693378,4.82604592 Z M112.723269,11.2607733 C113.14585,11.2607733 113.462785,11.3680188 113.674075,11.3680188 L117.266007,11.3680188 L117.266007,13.0839462 L115.892621,13.6201736 C116.103911,13.94191 116.209556,14.3708918 116.209556,14.7998737 C116.209556,15.8723283 115.786976,16.730292 115.047461,17.3737648 C114.307945,18.0172376 113.14585,18.2317286 111.666819,18.2317286 C111.244239,18.2317286 111.032949,18.2317286 110.821659,18.1244831 C110.716013,18.2317286 110.716013,18.4462195 110.716013,18.553465 C110.716013,18.7679559 110.821659,18.8752014 111.138594,18.9824468 C111.402706,19.071818 111.666819,19.0867132 111.992069,19.0891957 L113.885365,19.0896922 C116.103911,19.0896922 117.266007,20.0549014 117.266007,21.9853199 C117.266007,23.2722653 116.737781,24.2374746 115.681331,24.8809474 C114.62488,25.5244201 113.14585,25.953402 111.244239,25.953402 C109.870853,25.953402 108.708757,25.7389111 107.969242,25.2026838 C107.229727,24.7737019 106.807147,24.0229837 106.807147,23.16502 C106.807147,21.9853199 107.546662,21.1273561 109.025693,20.8056197 C108.708757,20.6983743 108.497467,20.4838833 108.180532,20.1621469 C107.969242,19.8404106 107.863597,19.6259196 107.863597,19.3041832 C107.863597,18.9824468 107.969242,18.6607104 108.074887,18.4462195 C108.286177,18.2317286 108.603112,17.9099922 109.131338,17.5882558 C108.603112,17.3737648 108.180532,16.944783 107.863597,16.5158011 C107.546662,15.9795738 107.441017,15.4433465 107.441017,14.6926282 C107.441017,13.6201736 107.863597,12.7622098 108.603112,12.1187371 C109.342628,11.4752643 110.399078,11.1535279 111.772464,11.1535279 C111.983754,11.1535279 112.300689,11.1535279 112.723269,11.2607733 Z M19.0161091,-7.2202247e-13 L9.50805455,9.54484638 L19.0161091,19.0896927 L14.2620819,23.8084932 L4.75402727,14.3708923 L-9.98769459e-13,9.54484638 L9.50805455,-7.2202247e-13 L19.0161091,-7.2202247e-13 Z M112.300689,21.8780744 L110.927304,21.8780744 C110.504723,21.8780744 110.293433,21.9853199 109.976498,22.0925653 C109.765208,22.3070562 109.659563,22.5215471 109.659563,22.8432836 C109.659563,23.16502 109.765208,23.3795108 110.082143,23.5940018 C110.399078,23.8084927 110.821659,23.8084927 111.349884,23.8084927 C112.195044,23.8084927 112.828914,23.7012473 113.35714,23.4867563 C113.885365,23.2722653 114.096655,22.950529 114.096655,22.6287926 C114.096655,22.3070562 113.99101,22.1998107 113.674075,22.0925653 C113.35714,21.9853199 112.93456,21.8780744 112.300689,21.8780744 Z M188.47077,11.4752643 C189.527221,11.4752643 190.583672,11.6897552 191.534477,12.1187371 L191.006252,13.2984372 C190.055447,12.8694553 189.104641,12.6549644 188.365125,12.6549644 C187.62561,12.6549644 187.097385,12.7622098 186.78045,12.9767008 C186.463514,13.1911917 186.252225,13.5129281 186.252225,13.94191 C186.252225,14.1564009 186.35787,14.4781373 186.463514,14.5853827 C186.569159,14.7998737 186.78045,14.9071191 187.097385,15.1216101 C187.41432,15.336101 187.942546,15.5505919 188.787706,15.8723283 C189.949802,16.3013102 190.689317,16.730292 191.111897,17.1592739 C191.640122,17.6955012 191.851413,18.2317286 191.851413,18.8752014 C191.851413,19.8404106 191.534477,20.4838833 190.794962,21.0201107 C190.161092,21.556338 189.210287,21.7708289 187.942546,21.7708289 C186.674805,21.7708289 185.618354,21.556338 184.878839,21.1273561 L184.878839,19.7331651 C185.30142,19.947656 185.829644,20.1621469 186.35787,20.2693924 C186.886095,20.3766378 187.41432,20.4838833 187.942546,20.4838833 C188.682061,20.4838833 189.315931,20.3766378 189.738511,20.1621469 C190.161092,19.947656 190.372381,19.5186741 190.372381,18.9824468 C190.372381,18.553465 190.161092,18.2317286 189.844156,18.0172376 C189.527221,17.6955012 188.893351,17.3737648 187.942546,17.0520284 C186.99174,16.730292 186.35787,16.4085556 186.040935,16.1940647 C185.618354,15.9795738 185.407065,15.6578374 185.195774,15.336101 C184.984484,15.0143646 184.878839,14.5853827 184.878839,14.1564009 C184.878839,13.4056826 185.195774,12.7622098 185.829644,12.2259825 C186.463514,11.6897552 187.308676,11.4752643 188.47077,11.4752643 Z M85.4668464,11.1535279 C86.945877,11.1535279 88.1079726,11.5825097 88.953133,12.333228 C89.7982935,13.0839462 90.2208736,14.2636464 90.2208736,15.7650829 L90.2208736,17.3737648 L83.9878156,17.3737648 C83.9878156,17.9099922 84.1991058,18.338974 84.6216859,18.7679559 C85.0442661,19.0896922 85.5724915,19.3041832 86.2063617,19.3041832 C86.840232,19.3041832 87.3684573,19.1969377 87.8966825,19.0896922 C88.4249078,18.9824468 88.953133,18.7679559 89.5870034,18.4462195 L89.5870034,21.0201107 C89.058778,21.341847 88.5305528,21.4490925 87.8966825,21.556338 C87.2628122,21.6635834 86.628942,21.7708289 85.7837815,21.7708289 C84.0934607,21.7708289 82.8257201,21.341847 81.8749146,20.3766378 C80.9241092,19.5186741 80.5015289,18.2317286 80.5015289,16.5158011 C80.5015289,14.7998737 80.9241092,13.5129281 81.7692696,12.5477189 C82.61443,11.5825097 83.8821706,11.1535279 85.4668464,11.1535279 Z M182.449003,7.50718206 L182.449003,21.556338 L181.286907,21.556338 L181.075617,20.2693924 C180.336102,21.2346015 179.279651,21.7708289 177.906265,21.7708289 C176.638525,21.7708289 175.68772,21.341847 174.948204,20.4838833 C174.208689,19.6259196 173.891753,18.338974 173.891753,16.730292 C173.891753,15.1216101 174.208689,13.8346645 174.948204,12.9767008 C175.68772,12.1187371 176.638525,11.5825097 177.906265,11.5825097 C179.174006,11.5825097 180.230457,12.1187371 180.969972,13.0839462 L181.075617,13.0839462 L180.969972,12.333228 L180.969972,7.50718206 L182.449003,7.50718206 Z M160.580477,11.4752643 C161.742573,11.4752643 162.587733,11.6897552 163.115959,12.2259825 C163.644184,12.7622098 163.961119,13.6201736 163.961119,14.6926282 L163.961119,21.4490925 L162.904669,21.4490925 L162.904669,21.556338 L162.587733,20.1621469 L162.482088,20.1621469 C161.953863,20.8056197 161.531282,21.2346015 161.003058,21.4490925 C160.474832,21.6635834 159.946607,21.7708289 159.207092,21.7708289 C158.256287,21.7708289 157.516771,21.556338 156.988546,21.0201107 C156.460321,20.4838833 156.143385,19.8404106 156.143385,18.8752014 C156.143385,16.8375375 157.728061,15.8723283 160.897412,15.7650829 L162.587733,15.6578374 L162.587733,15.0143646 C162.587733,14.2636464 162.376443,13.6201736 162.059508,13.2984372 C161.742573,12.9767008 161.214348,12.7622098 160.474832,12.7622098 C159.629671,12.7622098 158.784511,12.9767008 157.728061,13.5129281 L157.305481,12.333228 C157.833706,12.1187371 158.256287,11.9042461 158.890156,11.6897552 C159.418382,11.5825097 160.052252,11.4752643 160.580477,11.4752643 Z M124.978095,11.3680188 C126.140191,11.3680188 126.985351,11.6897552 127.619222,12.333228 C128.253092,12.9767008 128.570027,13.94191 128.570027,15.1216101 L128.570027,21.7708289 L125.08374,21.7708289 L125.08374,15.9795738 C125.08374,15.336101 124.978095,14.7998737 124.766805,14.4781373 C124.555515,14.1564009 124.23858,13.94191 123.816,13.94191 C123.182129,13.94191 122.759549,14.1564009 122.548259,14.6926282 C122.336969,15.1216101 122.125679,15.9795738 122.125679,17.1592739 L122.125679,21.6635834 L118.639392,21.6635834 L118.639392,11.4752643 L121.280518,11.4752643 L121.703099,12.7622098 L121.914389,12.7622098 C122.231324,12.333228 122.653904,11.9042461 123.182129,11.6897552 C123.710355,11.4752643 124.344225,11.3680188 124.978095,11.3680188 Z M96.3482865,11.3680188 C96.9821569,11.3680188 97.6160271,11.4752643 98.2498975,11.5825097 C98.8837678,11.6897552 99.4119931,11.9042461 100.045863,12.2259825 L99.0950579,14.4781373 C98.6724776,14.2636464 98.1442525,14.0491554 97.6160271,13.94191 C97.0878019,13.8346645 96.6652217,13.727419 96.3482865,13.727419 C95.8200613,13.727419 95.5031261,13.8346645 95.5031261,14.1564009 C95.5031261,14.3708918 95.6087712,14.4781373 95.8200613,14.5853827 C96.0313514,14.6926282 96.5595766,14.9071191 97.5103821,15.336101 C98.2498975,15.6578374 98.7781227,15.8723283 99.0950579,16.1940647 C99.4119931,16.5158011 99.7289281,16.8375375 99.8345732,17.1592739 C99.8345732,17.3737648 99.9402183,17.9099922 99.9402183,18.4462195 C99.9402183,19.5186741 99.6232831,20.3766378 98.8837678,20.9128652 C98.1442525,21.4490925 97.0878019,21.7708289 95.7144163,21.7708289 C94.9749009,21.7708289 94.3410306,21.7708289 93.8128054,21.6635834 C93.2845801,21.556338 92.6507098,21.4490925 92.1224845,21.2346015 L92.1224845,18.4462195 C92.6507098,18.6607104 93.2845801,18.8752014 93.9184504,19.0896922 C94.5523207,19.1969377 95.080546,19.3041832 95.6087712,19.3041832 C96.3482865,19.3041832 96.7708668,19.0896922 96.7708668,18.7679559 C96.7708668,18.553465 96.6652217,18.4462195 96.4539316,18.338974 C96.2426416,18.2317286 95.6087712,17.9099922 94.6579658,17.4810103 C93.7071603,17.0520284 93.0732899,16.6230466 92.7563549,16.1940647 C92.4394197,15.6578374 92.2281296,15.1216101 92.2281296,14.3708918 C92.2281296,13.4056826 92.5450647,12.6549644 93.2845801,12.1187371 C94.0240955,11.5825097 94.9749009,11.3680188 96.3482865,11.3680188 Z M143.043399,11.7970007 C143.677269,14.2636464 144.099849,16.1940647 144.52243,17.4810103 C144.839365,18.7679559 145.050655,19.6259196 145.050655,20.0549014 L145.1563,20.0549014 C145.261945,19.7331651 145.36759,19.3041832 145.473235,18.7679559 C145.57888,18.2317286 145.79017,17.8027467 145.895815,17.4810103 L147.691781,11.7970007 L149.276457,11.7970007 L150.966778,17.4810103 C151.283713,18.553465 151.495003,19.4114287 151.600648,20.0549014 L151.706293,20.0549014 C151.706293,19.8404106 151.811938,19.5186741 151.917583,19.0896922 C152.023228,18.6607104 152.657099,16.1940647 153.713548,11.7970007 L155.19258,11.7970007 L152.551453,21.6635834 L150.755488,21.6635834 L150.755488,21.556338 L148.959522,15.7650829 C148.853877,15.4433465 148.642587,14.5853827 148.325651,13.4056826 L148.220006,13.4056826 C148.008716,14.4781373 147.797426,15.2288555 147.586136,15.8723283 L145.79017,21.6635834 L144.099849,21.6635834 L141.458723,11.7970007 L143.043399,11.7970007 Z M51.5547851,8.04340938 C52.8225257,8.04340938 53.9846213,8.25790031 55.1467168,8.79412764 L54.7241366,10.0810732 C53.6676861,9.65209136 52.6112356,9.43760043 51.5547851,9.43760043 C50.7096247,9.43760043 50.1813995,9.65209136 49.6531742,9.97382775 C49.2305941,10.2955641 49.0193039,10.8317915 49.0193039,11.4752643 C49.0193039,11.9042461 49.124949,12.333228 49.2305941,12.5477189 C49.4418841,12.8694553 49.6531742,13.0839462 50.0757544,13.2984372 C50.4983346,13.5129281 51.0265599,13.8346645 51.8717203,14.1564009 C53.2451059,14.6926282 54.1959114,15.2288555 54.7241366,15.7650829 C55.358007,16.4085556 55.5692971,17.1592739 55.5692971,18.0172376 C55.5692971,19.1969377 55.1467168,20.0549014 54.3015565,20.6983743 C53.4563961,21.341847 52.3999456,21.6635834 50.9209148,21.6635834 C49.336239,21.6635834 48.1741435,21.4490925 47.3289831,21.0201107 L47.3289831,19.5186741 C47.8572084,19.7331651 48.4910786,19.947656 49.0193039,20.0549014 C49.5475291,20.1621469 50.2870446,20.2693924 50.9209148,20.2693924 C51.9773653,20.2693924 52.7168806,20.0549014 53.1394609,19.7331651 C53.6676861,19.3041832 53.8789762,18.7679559 53.8789762,18.1244831 C53.8789762,17.6955012 53.7733311,17.2665194 53.562041,17.0520284 C53.350751,16.730292 53.0338158,16.5158011 52.6112356,16.1940647 C52.1886554,15.9795738 51.5547851,15.6578374 50.7096247,15.336101 C49.5475291,14.9071191 48.5967237,14.3708918 48.1741435,13.727419 C47.6459182,13.0839462 47.4346281,12.333228 47.4346281,11.3680188 C47.4346281,10.4028096 47.8572084,9.54484589 48.5967237,8.9013731 C49.336239,8.25790031 50.3926895,8.04340938 51.5547851,8.04340938 Z M61.5910649,8.04340938 C62.8588056,8.04340938 64.0209011,8.25790031 65.1829967,8.79412764 L64.7604164,10.0810732 C63.7039659,9.65209136 62.6475154,9.43760043 61.5910649,9.43760043 C60.7459045,9.43760043 60.2176792,9.65209136 59.689454,9.97382775 C59.2668738,10.2955641 59.0555837,10.8317915 59.0555837,11.4752643 C59.0555837,11.9042461 59.1612287,12.333228 59.2668738,12.5477189 C59.4781639,12.8694553 59.689454,13.0839462 60.1120342,13.2984372 C60.5346144,13.5129281 61.0628396,13.8346645 61.9080001,14.1564009 C63.2813857,14.6926282 64.2321911,15.2288555 64.7604164,15.7650829 C65.2886417,16.4085556 65.6055768,17.1592739 65.6055768,18.0172376 C65.6055768,19.1969377 65.1829967,20.0549014 64.3378362,20.6983743 C63.4926758,21.341847 62.4362253,21.6635834 60.9571947,21.6635834 C59.3725189,21.6635834 58.2104233,21.4490925 57.3652629,21.0201107 L57.3652629,19.5186741 C57.8934881,19.7331651 58.5273585,19.947656 59.0555837,20.0549014 C59.583809,20.1621469 60.3233243,20.2693924 60.9571947,20.2693924 C62.0136452,20.2693924 62.7531605,20.0549014 63.1757406,19.7331651 C63.7039659,19.3041832 63.9152561,18.7679559 63.9152561,18.1244831 C63.9152561,17.6955012 63.809611,17.2665194 63.5983209,17.0520284 C63.3870307,16.730292 63.0700957,16.5158011 62.6475154,16.1940647 C62.2249352,15.9795738 61.5910649,15.6578374 60.7459045,15.336101 C59.583809,14.9071191 58.6330035,14.3708918 58.2104233,13.727419 C57.6821981,13.0839462 57.470908,12.333228 57.470908,11.3680188 C57.470908,10.4028096 57.8934881,9.54484589 58.6330035,8.9013731 C59.3725189,8.25790031 60.4289694,8.04340938 61.5910649,8.04340938 Z M42.2580207,8.15065485 C43.6314063,8.15065485 44.7935019,8.36514578 45.8499524,8.9013731 L45.2160821,10.1883187 C44.3709217,9.86658228 43.4201162,9.54484589 42.3636657,9.54484589 C40.9902801,9.54484589 39.8281845,9.97382775 38.9830241,10.9390369 C38.1378637,11.9042461 37.7152835,13.1911917 37.7152835,14.9071191 C37.7152835,16.6230466 38.1378637,17.9099922 38.877379,18.8752014 C39.7225394,19.8404106 40.77899,20.2693924 42.2580207,20.2693924 C43.2088261,20.2693924 44.1596316,20.0549014 45.3217271,19.7331651 L45.3217271,21.1273561 C44.3709217,21.4490925 43.3144712,21.6635834 42.0467306,21.6635834 C40.1451196,21.6635834 38.6660889,21.1273561 37.6096384,19.947656 C36.5531879,18.7679559 36.0249627,17.0520284 36.0249627,14.9071191 C36.0249627,13.5129281 36.2362528,12.333228 36.764478,11.3680188 C37.2927033,10.4028096 38.0322186,9.54484589 38.877379,9.00861857 C39.7225394,8.47239124 40.884635,8.15065485 42.2580207,8.15065485 Z M172.624013,11.5825097 L172.412723,12.9767008 C171.990142,12.8694553 171.673208,12.8694553 171.356272,12.8694553 C170.616757,12.8694553 169.877242,13.1911917 169.349016,13.8346645 C168.820792,14.4781373 168.503856,15.336101 168.503856,16.3013102 L168.503856,21.556338 L167.024826,21.556338 L167.024826,11.6897552 L168.18692,11.6897552 L168.398211,13.5129281 L168.503856,13.5129281 C168.820792,12.8694553 169.349016,12.333228 169.771597,12.0114916 C170.299822,11.6897552 170.828048,11.4752643 171.461918,11.4752643 C171.884498,11.4752643 172.307078,11.4752643 172.624013,11.5825097 Z M136.282116,8.36514578 L141.353078,21.556338 L139.662757,21.556338 L138.078082,17.3737648 L132.901474,17.3737648 L131.316798,21.556338 L129.837768,21.556338 L135.014375,8.36514578 L136.282116,8.36514578 Z M105.328116,11.3680188 L105.328116,21.556338 L101.841829,21.556338 L101.841829,11.3680188 L105.328116,11.3680188 Z M72.15557,8.36514578 C74.268471,8.36514578 75.8531468,8.9013731 77.0152424,9.97382775 C78.1773378,11.0462824 78.8112082,12.6549644 78.8112082,14.6926282 C78.8112082,16.8375375 78.1773378,18.553465 77.0152424,19.7331651 C75.8531468,20.9128652 74.1628259,21.556338 71.9442798,21.556338 L67.7184778,21.556338 L67.7184778,8.36514578 L72.15557,8.36514578 Z M178.01191,12.7622098 C177.16675,12.7622098 176.53288,13.0839462 176.004654,13.8346645 C175.582075,14.4781373 175.265139,15.4433465 175.265139,16.730292 C175.265139,18.0172376 175.47643,18.9824468 175.899009,19.6259196 C176.53288,20.1621469 177.16675,20.4838833 178.117556,20.4838833 C179.174006,20.4838833 179.807876,20.1621469 180.336102,19.6259196 C180.758682,19.0896922 180.969972,18.1244831 180.969972,16.944783 L180.969972,16.6230466 C180.969972,15.2288555 180.758682,14.2636464 180.230457,13.6201736 C179.807876,12.9767008 179.068361,12.7622098 178.01191,12.7622098 Z M162.376443,16.730292 L160.897412,16.8375375 C159.735317,16.8375375 158.890156,17.0520284 158.361932,17.3737648 C157.833706,17.6955012 157.622415,18.2317286 157.622415,18.8752014 C157.622415,19.4114287 157.833706,19.8404106 158.150641,20.0549014 C158.573221,20.3766378 158.995802,20.4838833 159.524026,20.4838833 C160.474832,20.4838833 161.108703,20.2693924 161.636928,19.7331651 C162.165153,19.1969377 162.376443,18.553465 162.376443,17.5882558 L162.376443,16.730292 Z M72.3668601,11.2607733 L71.3104096,11.2607733 L71.3104096,18.6607104 L72.0499249,18.6607104 C73.1063754,18.6607104 73.8458907,18.338974 74.374116,17.6955012 C75.0079863,17.0520284 75.2192764,16.0868193 75.2192764,14.7998737 C75.2192764,13.6201736 75.0079863,12.6549644 74.4797611,12.1187371 C74.0571809,11.5825097 73.3176655,11.2607733 72.3668601,11.2607733 Z M111.772464,13.0839462 C111.138594,13.0839462 110.716013,13.6201736 110.716013,14.6926282 C110.716013,15.7650829 111.032949,16.3013102 111.772464,16.3013102 C112.089399,16.3013102 112.406334,16.1940647 112.511979,15.8723283 C112.723269,15.6578374 112.828914,15.2288555 112.828914,14.6926282 C112.828914,13.6201736 112.511979,13.0839462 111.772464,13.0839462 Z M135.436955,9.97382775 C135.33131,10.5100551 135.12002,11.1535279 134.90873,11.9042461 L133.429699,15.9795738 L137.549856,15.9795738 L136.070826,11.9042461 C135.859535,11.3680188 135.648245,10.724546 135.436955,9.97382775 Z M85.5724915,13.6201736 C85.1499112,13.6201736 84.832976,13.727419 84.516041,14.0491554 C84.1991058,14.2636464 84.0934607,14.6926282 83.9878156,15.2288555 L86.945877,15.2288555 C86.945877,14.6926282 86.840232,14.3708918 86.5232969,14.0491554 C86.4176518,13.727419 86.1007167,13.6201736 85.5724915,13.6201736 Z M103.637795,7.18544567 C104.271665,7.18544567 104.799891,7.29269113 105.011181,7.61442753 C105.328116,7.82891845 105.433761,8.25790031 105.433761,8.79412764 C105.433761,9.86658228 104.799891,10.2955641 103.53215,10.2955641 C102.370054,10.4028096 101.841829,9.86658228 101.841829,8.79412764 C101.841829,8.25790031 101.947474,7.82891845 102.264409,7.61442753 C102.581345,7.3999366 103.003925,7.18544567 103.637795,7.18544567 Z" id="Combined-Shape" fill="#FFFFFF"></path>
    </g>
</svg>