<svg height="190" viewBox="0 0 630 190" width="630" xmlns="http://www.w3.org/2000/svg"><path d="m224.956777 58.8037124-3.710718-.188294-1.529545-.3004472-.305909-.5638531c0-.5257827.382386-.7511181 1.148206-.7511181h38.371675c17.980535 0 30.604519 5.3730668 37.950526 16.1562419 4.208344 6.2373671 6.311992 13.6394817 6.311992 22.2063438 0 4.4717251-.688295 8.7921973-2.104696 12.9624463-1.606022 4.396614-3.82491 8.267444-6.694378 11.724645-3.137663 3.643438-6.962573 6.462703-11.362634 8.528792-4.70597 2.10416-9.984995 3.193795-15.914601 3.193795h-48.930774c-.803535 0-1.185921-.263405-1.185921-.713047 0-.488742.574103-.751118 1.644785-.751118l9.373177-.562825c1.454116-.189322 2.487082-.602952 2.984708-1.165776l.95649-1.316c.344671-.900313.536388-2.252326.574103-4.094108v-59.5935053c0-2.3294951-1.338876-3.7576484-3.94015-4.3215014zm20.659334 1.0145239-.268194 1.5032652v66.1673315c0 .751118.152954 1.275872.458863 1.465195l1.530593.225336h5.049594l11.706257-.41363c3.136615-.337489 5.814366-.82623 7.919062-1.503265 2.103649-.750089 4.093105-1.840754 5.814367-3.154696 1.530592-1.239859 3.0989-3.00653 4.821209-5.260914 2.868421-3.681507 4.934354-8.378568 6.196753-14.127194.764772-3.75559 1.148206-7.4010854 1.148206-10.895328 0-3.0806132-.458863-6.3875907-1.415353-9.9569451-1.338875-5.1477314-3.367094-9.6564979-6.236562-13.4892581-5.54722-7.4391561-14.652203-11.1216927-27.238473-11.1216927h-7.766108c-.878964-.0771697-1.453068.1111243-1.720214.5617952zm65.112521 71.3901747c-.076477-.451699.305909-.638964 1.148207-.638964l2.677751-.076141c1.454116-.187265 2.334128-.674978 2.677752-1.427125l.497626-2.705054v-21.830785c0-.82623-.306957-1.465194-.880013-1.840753l-1.989456-.189323-2.677751.715105-1.454116-.07614c-.191716-.450671.382387-.864301 1.721262-1.23986 3.175378-.82623 5.969417-1.878824 8.340211-3.1937952 1.453068-.8262299 2.486035-1.2779297 2.944898-1.4651948l1.148207-.1121532c.382386.0740829.57515.8262299.57515 2.1782425v27.5032697c0 1.313942.304862 2.254383.880013 2.817208.687247.677035 2.295365 1.014524 4.781399 1.014524.880012 0 1.337828.189322 1.416401.600894 0 .339547-.268194.451737-.728105.451737h-20.39114c-.458864.00305-.688296-.186273-.688296-.485692zm90.285061-27.053628c-1.874216 1.916895-3.136614 4.170249-3.825957 6.875303v15.970006c0 1.427124.497626 2.441648 1.530592 3.080613l2.335175.411572 2.447273.263406c.57515.07614.804582.189323.804582.488741l-.114192.263406-.65058.189323h-20.467617c-.611818 0-.955442-.189323-.955442-.488742l.573055-.451699 3.443572-.263406c1.337828-.225336 2.181173-.674978 2.640036-1.352013l.575151-1.69053v-22.543833l-.384481-1.653488-.648485-.375559c-.192765-.187266-.497626-.299419-.957538-.375559-.573055-.036013-1.262398.07614-1.988408.375559l-1.949646.526811-1.111539-.263406c-.19067-.263405-.114192-.450671.152954-.562824l1.644785-.677035c3.748433-1.089636 6.770856-2.2163129 8.876599-3.3800315l2.600227-1.3911119 1.148206.0740829.458864.940441v8.2653865c2.870516-4.583879 5.164833-7.4010862 6.734188-8.3415272.955442-.5628241 1.874217-1.0145239 2.563559-1.201789l1.337829-.1121532c.841249-.0761408 1.798786.187265 2.86842.8643003 1.455163.8262299 2.219936 2.0660892 2.295365 3.6434371.077525 1.316-.306956 2.331553-1.148206 3.118684-.764773.638965-1.530593.828287-2.21784.638965-.650581-.112154-1.148207-.375559-1.49183-.751119l-1.07173-1.313942c-.841249-1.203847-1.644784-1.579406-2.600226-1.239859-1.113635.29736-2.259746 1.125648-3.446715 2.43959zm-79.955394-30.885359c-1.4164 0-2.563559.4887413-3.519001 1.4281534-1.032966.9394121-1.530592 2.1412011-1.455163 3.5323129-.075429 1.3149712.421149 2.4426773 1.455163 3.3820894.955442.9394121 2.103649 1.4271244 3.519001 1.4271244 1.337829 0 2.524797-.4887412 3.480239-1.4271244.955442-.9394121 1.49183-2.0660893 1.49183-3.3820894 0-1.3911118-.536388-2.5929008-1.49183-3.5323129s-2.14241-1.4281534-3.480239-1.4281534zm20.275901 29.982989c1.37659-1.802684 3.099947-3.3059489 5.164833-4.5077379 1.837549-1.0525943 3.673003-1.7286006 5.585982-2.0681471l7.077813-.4115716c2.561464.1121533 4.935401.6008945 7.077812 1.5392777 5.164834 2.2543829 8.41564 6.3886199 9.639276 12.3996219 1.262399 6.087144.192765 11.235904-3.175377 15.406153-2.868421 3.531284-6.656664 5.785667-11.438063 6.762121-5.010832 1.089636-9.678039.751118-13.887431-.938383-5.47179-2.180301-8.798026-6.500773-9.870803-12.813252-.95649-5.972932.305909-11.046581 3.825958-15.368082zm22.417263-1.689502c-2.33308-2.5538012-5.279026-3.6815073-8.837837-3.3820889-3.441476.3395465-6.081513 2.2163129-7.803823 5.7856669-1.567259 3.231866-2.14241 7.178837-1.567259 11.836799.419053 4.621948 1.912978 8.303456 4.321488 11.121692 2.563559 2.96846 5.47179 4.20832 8.722597 3.645495 3.404809-.638964 5.892939-2.443706 7.537724-5.448178 1.606022-3.080613 2.179078-7.063597 1.796691-12.136217-.457816-5.072619-1.795644-8.831297-4.169581-11.423169z" fill="#fff"/></svg>