<?xml version="1.0" encoding="UTF-8"?>
<svg width="20px" height="20px" viewBox="0 0 20 20" version="1.1" xmlns="http://www.w3.org/2000/svg" xmlns:xlink="http://www.w3.org/1999/xlink">
    <title>dribbble-hover copy</title>
    <g id="About" stroke="none" stroke-width="1" fill="none" fill-rule="evenodd">
        <g id="Artboard" transform="translate(-342.000000, -18.000000)" fill="#FE378A" fill-rule="nonzero">
            <path d="M352,18 L352,18 C346.47715,18 342,22.47715 342,28 C342,33.52285 346.47715,38 352,38 C357.52285,38 362,33.52285 362,28 L362,28 C362,22.4771504 357.52285,18 352,18 L352,18 Z M360,28.0000003 L360,28.0000003 L360.000001,28.0000003 C358.854831,27.656151 357.665681,27.480978 356.470001,27.48 L356.47,27.48 C355.758642,27.4894955 355.0494,27.5597509 354.35,27.6900001 C354.1,27.08 353.84,26.49 353.56,25.9 L353.56,25.9000001 C355.20456,25.0783151 356.70421,23.9941001 358,22.6900001 L358.000001,22.6900001 C359.297951,24.1532403 360.010131,26.0440803 360.000001,28.0000003 L360,28.0000003 Z M356.870001,21.67 L356.870001,21.6700001 C355.70509,22.8525901 354.35375,23.8356901 352.87,24.5800019 L352.870001,24.5800019 C352.055941,23.0620119 351.123031,21.6108119 350.080011,20.2400119 L350.080011,20.2400121 C350.708047,20.0831991 351.352691,20.0026151 352.000001,20.0000021 L352.000001,20.0000021 C353.763001,20.0048461 355.475031,20.5919271 356.870001,21.6700021 L356.870001,21.67 Z M348.62,20.76 L348.620001,20.76 C349.703801,22.158001 350.670411,23.643041 351.510001,25.200001 L351.510001,25.2000011 C349.753541,25.8858941 347.885611,26.2418511 346.000001,26.2500012 L346.000002,26.2500012 C345.408512,26.2435488 344.817742,26.2068342 344.230002,26.1400012 L344.230002,26.1400005 C344.798209,23.7719705 346.414092,21.7916905 348.620002,20.76 L348.62,20.76 Z M344,28 C344,27.87 344,27.75 344,27.62 L344,27.62 C344.663371,27.7042666 345.33129,27.747682 345.99999,27.75 L346,27.75 C348.121501,27.7439873 350.222381,27.333314 352.189991,26.54 C352.429991,27.04 352.669991,27.54 352.879992,28.06 L352.879992,28.0599997 C350.040462,28.9325577 347.616002,30.8095597 346.059992,33.3400001 L346.059992,33.3400001 C344.738292,31.8749501 344.004632,29.9731301 344,28.0000001 L344,28 Z M347.18,34.37 L347.18,34.3700005 C348.55169,31.9962805 350.78144,30.2389605 353.41,29.4600004 L353.41,29.4600004 C354.113135,31.4030004 354.61248,33.4137904 354.9,35.4600004 L354.9,35.4600004 C352.31512,36.4769304 349.38658,36.0672374 347.18,34.3800004 L347.18,34.37 Z M356.31,34.7300018 L356.310001,34.7300018 C356.00339,32.8217118 355.528197,30.9443618 354.89,29.1200018 L354.89,29.1200018 C355.413407,29.0448836 355.94125,29.0047938 356.46999,28.9999998 L356.469991,28.9999998 C357.618841,29.0012051 358.760031,29.1869028 359.849991,29.5499998 L359.849991,29.5499989 C359.424538,31.6866489 358.146091,33.5573789 356.310001,34.7300018 L356.31,34.7300018 Z" id="dribbble-hover-copy"></path>
        </g>
    </g>
</svg>