<svg height="190" viewBox="0 0 630 190" width="630" xmlns="http://www.w3.org/2000/svg"><path d="m422.088801 85.035816c-4.541263-1.2068297-9.127268-1.2068297-13.64616 0-6.778339 1.8102445-11.319602 6.0788458-12.773701 12.8951986-.805347 3.7098834-.961942 7.6656034-.738235 11.4872304.469786 8.715992 5.883509 14.92893 14.250171 16.873267h.357932c.31319 0 .648752.223487.961942.223487h.335562c.402673 0 .89483.223487 1.409357.223487 1.633065.223487 3.735916.290533 5.480835 0h.268449c8.657482-.446974 15.212113-5.900056 17.135998-14.258469 1.051425-4.581483 1.051425-9.185315 0-13.7891467-1.610695-7.2186294-5.995362-11.8448098-13.176375-13.7667978zm.559269 25.209331c0 .268184 0 .536369-.223708.804553-.872459 3.843976-3.668803 5.922405-7.404719 5.765964-4.004365-.223487-6.755968-2.525403-7.158642-6.52582-.268449-2.927679-.31319-5.900056 0-8.827735.380303-4.6261806 3.26613-7.1515834 7.606057-7.0621886 3.55695 0 6.107216 2.0784288 7.002046 5.5201283.850088 3.4193503.246078 9.5428943.223707 10.3250983zm17.404447-45.6136921v61.5036161h13.06452v-18.817603l12.035466 18.839952h13.847497l-13.064521-20.471407 13.064521-20.3820126h-13.847497l-12.035466 18.7952546v-41.0545576zm-139.07898 42.3954801c0-2.860634 0-5.721267-.425044-8.537203-1.118538-7.687952-5.794026-12.5599681-13.377711-13.8338439-2.885828-.4916713-5.950621-.4246252-8.903561-.2234869-8.053471.7598557-14.160687 5.765964-15.413449 13.3198238-.760606 4.581483-.850089 9.43115-.246079 14.012634.917201 6.905747 4.295185 11.308441 10.111581 13.431567 2.66212.804553 15.681899 4.201555 27.135725-1.564409l-.469786-1.676152c-.536898-2.257219-1.163279-4.46974-1.767289-6.70461v-.223487s-.246078 0-.671123.223487c-.492156.223487-1.006684.290533-1.49884.446974h-.268449c-1.744919.491672-4.228073 1.095087-6.845451 1.430317-2.192334.223487-4.42941.223487-6.666485 0-3.646433-.603415-6.420406-2.547752-6.286182-7.151583h25.614514v-.446974zm-11.744646-5.609524h-14.115946c0-2.7935868.425044-5.4083844 2.908198-6.9951419 2.639749-1.6761524 5.570318-1.7431985 8.29955-.2458357 2.773973 1.5197114 2.97531 4.2686012 2.908198 7.2409776zm-28.455599 21.745283c-.559269-2.05608-1.208021-4.11216-1.834402-6.078845l-.58164-2.190173s-15.279225 7.330373-17.650525-6.592866c-.223708-2.301916-.223708-4.670877.223707-6.928096.604011-4.2686012 3.199018-6.5705171 7.359979-6.9504449 1.409357-.223487 2.863456 0 4.250443.2234869 1.901514.3128818 3.735916.8939479 5.816396 1.407968.715864-2.1901724 1.454099-4.3803448 2.147592-6.5705172.223708-.3352304.223708-.6481122.26845-.8939479l.335561-1.3185731c0-.223487-.29082-.3575792-.58164-.5363688-.357932-.290533-.939571-.5363687-1.879143-.8715992-.380303-.223487-.738235-.2681844-1.118538-.3799279-.335561-.2234869-.559269-.2234869-.559269-.2234869-4.004365-1.1397836-8.120584-1.2291784-12.303915-.8045531-8.814077.9386453-14.809439 6.1235431-16.464875 14.7054431-.872459 4.514437-.827718 9.09592.223708 13.610357 1.49884 6.771655 5.615059 11.174349 12.303915 13.118685 4.362297 1.273876 8.836448 1.340922 13.288228.648113 1.879143-.290533 4.563634-1.251527 6.487518-1.944337l.738235-.268184-.357932-1.162133zm-49.394626-33.0760723c-.223708-.223487-.313191-.3352305-.425044-.4693227l-.313191-.3128817c-2.930569-2.9947255-4.049106-3.7322326-6.353294-4.4026935-8.858819-2.6147976-17.49393 2.0337315-20.223162 10.9285132-1.677807 5.475431-1.700177 11.107303-.715864 16.64978 2.125221 12.001251 11.051152 16.024016 20.581094 14.034982 2.930569-.603415 5.100532-2.436008 7.1139-4.961411 0 0 .223707-.223487.402673-.648112v5.274293h12.192061v-41.3227426h-12.192061v5.2295953zm-1.073796 20.7619403c-.402674 3.821627-3.489838 6.101194-7.158642 5.967102-3.735916-.223487-6.219069-2.145475-7.024417-5.743615-.961942-5.095503.223708-11.174349.26845-11.6660203.984313-3.4193508 3.467466-5.1178518 7.13627-5.028457 3.601692 0 6.353294 2.212521 6.778339 5.9224053.357932 3.486396.357932 7.084537 0 10.548585zm-28.724049-26.0138843h-9.328604v-6.1905893c.671122-5.8553588 10.357659-4.7379239 10.357659-4.7379239v-10.0122166c-.335561 0-19.238849-4.5591343-22.997136 9.8110783-.581639 1.7878958-.559268 10.0345653-.536898 11.0626054h-8.075842v11.017908h8.567999v29.9472554h12.482881v-29.9472554h9.552312l1.073796-11.017908h-1.073796zm195.990179.2011383c-4.541263-1.2068297-9.127268-1.2068297-13.64616 0-6.778339 1.8102445-11.319602 6.0788458-12.796072 12.8951986-.805347 3.7098834-.961942 7.6656034-.738235 11.4872304.492157 8.715992 5.883509 14.92893 14.272542 16.873267h.357932c.31319 0 .648752.223487.961942.223487h.335561c.402674 0 .894831.223487 1.409358.223487 1.633065.223487 3.735916.290533 5.480835 0h.268449c8.657482-.446974 15.212113-5.900056 17.135998-14.258469 1.051425-4.581483 1.051425-9.185315 0-13.7891467-1.633065-7.1962807-5.995363-11.8448098-13.176375-13.7667978zm.536898 25.209331c0 .268184 0 .536369-.223708.804553-.872459 3.843976-3.668803 5.922405-7.404719 5.765964-4.004365-.223487-6.755968-2.525403-7.158642-6.52582-.279637-2.935948-.279637-5.891787 0-8.827735.380303-4.6261806 3.26613-7.1515834 7.606057-7.0621886 3.55695 0 6.107216 2.0784288 7.002046 5.5201283.872459 3.4193503.268449 9.5428943.223707 10.3250983zm-46.821989-25.9691867c-4.921566-.5363688-9.19438.960994-12.796071 5.2966413v-26.5726016l-13.064521 1.5867575v61.4812675h13.064521v-3.642838c1.767289 1.251527 3.467467 2.771239 5.480834 3.486397 7.606057 2.726541 17.628155.51402 21.140363-9.654637 2.259447-6.52582 2.192334-13.208081.492157-19.8009465-1.856773-7.3303728-6.755968-11.3754871-14.317283-12.1800402zm1.968627 26.6396477c-.58164 4.045114-3.803029 6.168241-7.628428 5.877708-.961942 0-1.834402-.268185-2.595007-.581067-3.087164-1.765547-4.026736-4.737924-4.295185-6.615214-.223708-2.882982-.447415-8.917131.961942-11.7554152 1.18565-2.1901724 3.288501-3.3746534 6.040104-3.4640481 3.937253-.223487 6.912563 1.8102445 7.494203 5.8106613.492156 3.508746.514527 7.218629 0 10.727375z" fill="#fff"/></svg>