<?xml version="1.0" encoding="UTF-8"?>
<svg width="74px" height="22px" viewBox="0 0 74 22" version="1.1" xmlns="http://www.w3.org/2000/svg" xmlns:xlink="http://www.w3.org/1999/xlink">
    <title>logo-fwa</title>
    <g id="logo-fwa" stroke="none" stroke-width="1" fill="none" fill-rule="evenodd">
        <path d="M49.5109663,0.0145868144 C53.915151,0.200657559 58.3333712,0.0677498843 62.7456817,0.0565707341 C64.7569408,0.0513537973 66.5320592,0.470447718 67.5852124,2.42630215 C67.9018725,3.01457388 68.1104347,3.61998697 68.1724863,4.27707258 C68.2534981,5.13438919 68.7154376,5.59546703 69.5644608,5.72191564 C70.3401056,5.83743352 71.0374471,6.15765407 71.7254317,6.54047786 C73.0142332,7.25743403 73.4520415,8.41708454 73.5746673,9.77795976 C73.5960898,10.0147093 73.5138469,10.2708361 73.7000016,10.4785198 L73.7000016,12.1943952 C73.4911931,14.8801239 71.8566757,16.2067164 69.3738738,16.7115171 C68.6255613,16.8635536 68.3032378,17.3241346 68.1687928,18.0525183 C67.6822296,20.6883135 66.2850841,21.8338038 63.5779608,21.8775267 L50.1942724,21.8775267 C48.9219688,21.9244791 47.6937415,21.7997695 46.6346786,20.9744998 C46.3170336,20.7268195 45.9220704,20.6935305 45.6184609,20.9598427 C44.8044032,21.6733209 43.7598683,21.7165469 42.7970839,22 L40.3445691,22 C38.1771961,21.8424987 36.8736204,20.615028 36.1317101,18.6519692 C35.9948026,18.29051 35.8815339,17.7176407 35.4708115,17.7069584 C34.9564236,17.6937918 34.9295838,18.3339845 34.7185592,18.7016543 C34.4156884,19.2290618 34.1179886,19.7584566 33.806992,20.2818893 C33.0020451,21.6372992 31.5655018,21.6427645 30.2890122,22 L27.8362511,22 C25.6912856,21.824612 24.4039616,20.5755283 23.6352115,18.6641421 C23.4990427,18.3260349 23.2939278,18.0159998 23.1476633,17.6813705 C22.7517152,16.7773499 22.151637,16.391545 21.1162128,16.626804 C20.12388,16.852126 19.0899333,16.7075423 18.0747005,16.7256774 C17.1700279,16.7413282 16.6172271,17.1524725 16.4468315,18.0485435 C16.0164102,20.3151783 14.7015077,21.6715819 12.3849154,22 L9.68690286,22 C7.31392243,21.7784049 6.06476504,20.3700804 5.59174486,18.1349956 C5.42356538,17.3397854 4.94906779,16.8531197 4.1433822,16.6538824 C3.51055459,16.4976227 2.88757643,16.2914295 2.3012875,15.9940641 C0.181930583,14.9201204 -0.0325413445,12.9734577 0.00340917374,10.9313996 C0.0563500053,7.90756372 1.09054299,6.54246526 4.02075646,5.7720976 C4.95202263,5.52715 5.37333315,4.99949411 5.59494594,4.13000465 C6.28563911,1.41893651 7.44762881,0.239411946 10.2372413,0.137309041 C14.8029571,-0.0301297865 19.3777836,-0.0214348919 23.9496554,0.151966149 C25.9865231,0.229226498 27.2593192,1.24951027 28.1056338,3.00612741 C28.3602422,3.53452858 28.5025669,4.3327199 29.2107428,4.34613488 C29.9991919,4.36079199 30.1360993,3.51018287 30.410653,2.9544549 C31.4152976,0.920097982 33.0648354,0.052099074 35.284903,0.0518506484 C37.3909632,0.0513537973 39.194645,0.538267896 40.2066767,2.6240489 C40.4543905,3.13456343 40.7550452,3.62694289 41.0520063,4.11435384 C41.5134534,4.87155494 41.8749285,4.90459554 42.2176896,4.07087936 C43.5838093,0.749181196 46.1303864,-0.128506308 49.5109663,0.0145868144 Z M22.3115675,3.53616819 C18.7561598,3.57541943 15.2000133,3.54436623 11.6441131,3.55355798 C9.91676457,3.55827806 9.45310138,4.02581497 9.44497558,5.71908359 C9.44005085,6.74036106 9.41247237,7.76288067 9.45531751,8.78241917 C9.48191104,9.41863703 9.26005202,9.65911297 8.62131473,9.64097791 C7.51866801,9.61017314 6.41429764,9.62309127 5.31091222,9.64197161 C4.28927729,9.65960982 3.54958306,10.054358 3.51609491,11.2003451 C3.48728525,12.1719375 4.12282146,12.7023261 5.31312835,12.7202127 C6.37539229,12.736112 7.44061107,12.7664199 8.50016641,12.7095304 C9.2721176,12.6680434 9.49299168,12.9644151 9.4572874,13.6975189 C9.40557775,14.7573023 9.42773903,15.8215574 9.4491616,16.8835767 C9.47107664,17.9701901 10.1240956,18.7236648 11.0048833,18.7304202 C11.8859173,18.7373282 12.5640524,17.9858409 12.5923696,16.9101582 C12.6194556,15.8898745 12.6627932,14.8626348 12.5807965,13.8480648 C12.5034782,12.8903842 12.8836673,12.6804646 13.7696259,12.7045619 C15.8934151,12.7624451 18.0199129,12.7313919 20.1451795,12.7152442 C21.119537,12.7080399 21.6802173,12.1875883 21.7068109,11.210779 C21.7321732,10.2771958 21.1682918,9.80195767 20.2914439,9.67227953 C19.9703516,9.62483024 19.6394099,9.63650625 19.3126541,9.63576097 C17.432639,9.63277986 15.5513927,9.59402548 13.672855,9.65141178 C12.802163,9.67799331 12.4798395,9.37690154 12.5933545,8.53275148 C12.6310287,8.2520306 12.6305362,7.95764631 12.5933545,7.67642858 C12.4882116,6.8787341 12.8033942,6.60645969 13.614497,6.6211168 C16.0251516,6.66434284 18.4380223,6.67601884 20.8479382,6.61515458 C21.7117356,6.59329313 22.1542225,6.88916797 22.5324416,7.6523313 C24.1438128,10.9049672 25.8265925,14.1220782 27.4667734,17.3605538 C27.8169216,18.0519221 28.2365084,18.6652848 29.0724811,18.6873947 C29.9668118,18.711492 30.4181632,18.0849627 30.7990909,17.3533494 C32.1560999,14.7493527 33.540441,12.1595162 34.9250285,9.5699282 C35.0634133,9.31106876 35.0892682,8.93371034 35.5393884,8.86315748 C35.8402893,9.44099533 36.1426676,10.0138647 36.4383975,10.5904604 C37.6291969,12.912991 38.8281221,15.2315467 40.0009462,17.563269 C40.3439535,18.2449488 40.8332253,18.7157152 41.6024679,18.6844136 C42.307689,18.6555962 42.7257984,18.1927794 43.0621574,17.5530836 C44.8451554,14.1588451 46.6929135,10.7981442 48.4734491,7.40241518 C48.8223661,6.73713153 49.2879992,6.62186207 49.9518526,6.62633373 C53.2622551,6.64819518 56.5743813,6.68446531 59.8830601,6.60919237 C60.9913703,6.58410139 61.3237895,6.92692866 61.2179078,7.99093533 C61.1317251,8.85719526 61.4345959,9.73215009 59.9364934,9.67054055 C56.9580176,9.54781832 53.9704311,9.62035858 50.9870305,9.64197161 C49.5411302,9.65215706 48.9831585,10.2168284 48.9654295,11.6477596 C48.9444994,13.3633865 48.9341575,15.0800071 48.9713392,16.7948888 C48.9976865,18.0218626 49.5792969,18.5793296 50.8058005,18.5840497 C54.7293317,18.5989552 58.6531092,18.6001973 62.5768866,18.5847949 C63.790586,18.5800748 64.3231954,18.0129193 64.3485577,16.7578734 C64.3697341,15.6958541 64.3781061,14.6328411 64.3441255,13.5718155 C64.3239341,12.9467768 64.5339738,12.6911469 65.1840379,12.7140021 C66.2861922,12.752508 67.3908088,12.7371057 68.4944404,12.7194674 C69.6721893,12.7003387 70.3325954,12.1488339 70.288519,11.1921471 C70.2363169,10.0615624 69.5040098,9.65464131 68.4774501,9.64048106 C67.4560614,9.6263208 66.4304867,9.58210105 65.413284,9.6496728 C64.5243705,9.70879808 64.28429,9.35255583 64.3379696,8.52206918 C64.4010061,7.54550831 64.3608695,6.56199151 64.3512663,5.58170425 C64.3364921,4.10754698 63.8358935,3.563495 62.3823599,3.55852649 C57.7230742,3.54138512 53.0635423,3.56101074 48.4040104,3.54461466 C47.4306378,3.5411367 46.8032274,3.9649507 46.3548309,4.80785863 C44.9941284,7.36515135 43.6102797,9.91002279 42.216089,12.4491804 C42.0304268,12.7870392 41.9550784,13.2262556 41.4680228,13.4540618 C41.2540433,13.061301 41.0353854,12.6866753 40.8415973,12.2998767 C39.5995808,9.82009274 38.3686449,7.33484343 37.1214574,4.85779217 C36.7538264,4.12766945 36.2258955,3.58163006 35.3261476,3.60274624 C34.4879588,3.62237186 34.1865654,4.25014325 33.8511914,4.88089575 C32.3245256,7.75219837 30.7749597,10.6113281 29.2295799,13.4821339 C28.7146996,13.241658 28.6595426,12.7969762 28.480775,12.4519131 C27.1863101,9.95324884 25.8802721,7.45980149 24.6402254,4.93405882 C24.1411042,3.91750142 23.4260336,3.52399533 22.3115675,3.53616819 Z M52.9860517,12.7091826 C54.1660167,12.774767 55.35263,12.7233429 56.5362885,12.7230945 C57.7610685,12.7230945 58.9865872,12.7556382 60.2093973,12.7106732 C60.9254528,12.6843401 61.2165043,12.8743856 61.2197053,13.657423 C61.2266,15.471178 61.2696913,15.4716749 59.5058998,15.4719233 C57.3424666,15.4721717 55.1775559,15.420996 53.016585,15.4910521 C51.8228308,15.529558 52.082364,14.7534766 52.1005855,14.1152713 C52.1180683,13.503896 51.7580707,12.641114 52.9860517,12.7091826 Z" id="Combined-Shape" fill="#FFFFFF"></path>
    </g>
</svg>