<svg height="190" viewBox="0 0 630 190" width="630" xmlns="http://www.w3.org/2000/svg"><path d="m222.843251 117.062441c9.338272 0 16.375144-3.021129 21.883704-8.697572 5.670576-5.613371 7.43107-13.4720907 7.43107-19.8297066 0-1.9741406-.153087-3.7842952-.45926-5.3043204h-28.855514v8.4768212h20.512305c-.612346 4.7682119-2.226132 8.2497635-4.665309 10.6717128-2.990288 2.945443-7.654321 6.206244-15.846996 6.206244-12.627716 0-22.503704-10.0662255-22.503704-22.5543996 0-12.488174 9.875988-22.5607064 22.503704-22.5607064 6.807243 0 11.790844 2.6553138 15.458539 6.0611795l6.048827-5.9791864c-5.132222-4.8375907-11.939465-8.5525071-21.507366-8.5525071-17.301955 0-31.843251 13.9198991-31.843251 31.0312204 0 17.1050146 14.541296 31.0312206 31.843251 31.0312206zm52.666831 0c11.16893 0 20.277572-8.476821 20.277572-19.9873858 0-11.5736361-9.108642-19.9747714-20.277572-19.9747714-11.188066 0-20.296708 8.4011353-20.296708 19.9747714 0 11.5105648 9.108642 19.9873858 20.296708 19.9873858zm0-7.871334c-6.129835 0-11.417695-4.99527-11.417695-12.1160518 0-7.1838537 5.28786-12.0971303 11.417695-12.0971303 6.117078 0 11.39856 4.9132766 11.39856 12.0971303 0 7.1207818-5.281482 12.1160518-11.39856 12.1160518zm44.235597 7.871334c11.175309 0 20.283951-8.476821 20.283951-19.9873858 0-11.5736361-9.108642-19.9747714-20.283951-19.9747714-11.181687 0-20.290329 8.4011353-20.290329 19.9747714 0 11.5105648 9.108642 19.9873858 20.290329 19.9873858zm0-7.871334c-6.123457 0-11.411317-4.99527-11.411317-12.1160518 0-7.1838537 5.28786-12.0971303 11.411317-12.0971303s11.404938 4.9132766 11.404938 12.0971303c0 7.1207818-5.281481 12.1160518-11.404938 12.1160518zm43.476543 25.808893c10.403498 0 19.218725-6.048565 19.218725-20.813623v-35.8751187h-8.426132v3.2544938h-.306173c-1.996502-2.346263-5.823663-4.4654683-10.633128-4.4654683-10.110082 0-19.365432 8.7795648-19.365432 20.0567644 0 11.2078208 9.25535 19.9053928 19.365432 19.9053928 4.809465 0 8.636626-2.119205 10.633128-4.541154h.306173v2.876064c0 7.650583-4.133334 11.731315-10.792593 11.731315-5.428189 0-8.802469-3.853674-10.186625-7.120782l-7.724486 3.185115c2.226132 5.30432 8.11358 11.807001 17.911111 11.807001zm.605967-25.808893c-6.117078 0-11.251852-5.064648-11.251852-12.0340588 0-7.038789 5.134774-12.1791233 11.251852-12.1791233 6.053292 0 10.798971 5.1403343 10.798971 12.1791233 0 6.9694108-4.745679 12.0340588-10.798971 12.0340588zm33.608848-52.0719017h-8.879012v58.7322607h8.879012zm24.340741 59.9432357c9.25535 0 14.619753-5.59445 16.839506-8.855251l-6.895268-4.534847c-2.289917 3.317566-5.428189 5.518764-9.944238 5.518764-4.51605 0-7.737243-2.043519-9.797531-6.054872l27.019753-11.0564494-.918519-2.26427c-1.68395-4.4654683-6.818724-12.7152318-17.298765-12.7152318-10.409876 0-19.059259 8.1046989-19.059259 19.9747714 0 11.2078208 8.572839 19.9873858 20.054321 19.9873858zm-11.251852-20.5865659c-.22963-7.713655 6.046914-11.6556291 10.562963-11.6556291 3.520988 0 6.506173 1.7407758 7.507613 4.2384106z" fill="#fff"/></svg>