<?xml version="1.0" encoding="UTF-8"?>
<svg width="20px" height="20px" viewBox="0 0 20 20" version="1.1" xmlns="http://www.w3.org/2000/svg" xmlns:xlink="http://www.w3.org/1999/xlink">
    <title>insta-small</title>
    <defs>
        <linearGradient x1="50%" y1="0%" x2="50%" y2="100%" id="linearGradient-1">
            <stop stop-color="#5F4FA6" offset="0%"></stop>
            <stop stop-color="#C22196" offset="35.1745605%"></stop>
            <stop stop-color="#FC003E" offset="79.7803759%"></stop>
            <stop stop-color="#FFD75E" offset="100%"></stop>
        </linearGradient>
    </defs>
    <g id="About" stroke="none" stroke-width="1" fill="none" fill-rule="evenodd">
        <g id="Artboard" transform="translate(-457.000000, -17.000000)" fill="url(#linearGradient-1)" fill-rule="nonzero">
            <path d="M471.444444,17 L462.555556,17 L462.555555,17 C459.487311,17 457,19.487311 457,22.5555553 C457,22.5555553 457,22.5555553 457,22.5555553 L457,31.4444438 L457,31.4444447 C457,34.512689 459.487311,37 462.555555,37 L471.444444,37 L471.444444,37 C474.512688,37 477,34.512689 477,31.4444447 L477,22.5555562 L477,22.5555562 C477,19.4873118 474.512688,17 471.444444,17 C471.444443,17 471.444443,17 471.444443,17 L471.444444,17 Z M475.055555,31.4444445 L475.055555,31.444395 C475.049481,33.4362283 473.436322,35.0494282 471.444489,35.0555504 L462.555556,35.0555504 L462.555556,35.0555504 C460.563723,35.0494499 458.950545,33.4362727 458.944445,31.4444445 L458.944445,22.5555509 L458.944445,22.5555999 C458.950518,20.5637666 460.563678,18.9505667 462.555511,18.9444445 L471.4444,18.9444445 L471.4444,18.9444445 C473.436244,18.9505183 475.049455,20.5637111 475.055555,22.5555554 L475.055555,31.4444445 Z M473.388888,21.722222 L473.388888,21.722222 C473.388888,22.335872 472.891427,22.8333331 472.277777,22.8333331 C471.664127,22.8333331 471.166666,22.335872 471.166666,21.722222 C471.166666,21.108572 471.664127,20.611111 472.277777,20.611111 L472.277777,20.611111 C472.891427,20.611111 473.388888,21.108572 473.388888,21.722222 L473.388888,21.722222 Z M467,21.9999826 L467,21.9999826 C464.238577,21.9999826 462,24.2385775 462,26.9999996 C462,29.7614217 464.238577,31.9999994 467,31.9999994 C469.761422,31.9999994 472.000012,29.7614217 472.000012,26.9999996 L472.000012,26.9999057 C472.006091,24.244628 469.777433,22.0060948 467.022155,21.9999826 C467.01474,21.9999826 467.007324,21.9999826 466.999909,21.9999826 L467,21.9999826 Z M467,30.055555 L467,30.055555 C465.312466,30.055555 463.944444,28.6875328 463.944444,26.9999996 C463.944444,25.3124663 465.312466,23.9444442 467,23.9444442 C468.687533,23.9444442 470.055555,25.3124663 470.055555,26.9999996 L470.055555,26.9999994 C470.055555,28.6875327 468.687533,30.055555 467,30.055555 L467,30.055555 Z" id="insta-small"></path>
        </g>
    </g>
</svg>