<?xml version="1.0" encoding="UTF-8"?>
<svg width="21px" height="20px" viewBox="0 0 21 20" version="1.1" xmlns="http://www.w3.org/2000/svg" xmlns:xlink="http://www.w3.org/1999/xlink">
    <title>linkedin</title>
    <g id="About" stroke="none" stroke-width="1" fill="none" fill-rule="evenodd">
        <g id="Artboard" transform="translate(-818.000000, -18.000000)" fill="#0077AD">
            <path d="M822.799838,25.6470583 L822.799838,37.4117633 L822.799838,37.4117633 C822.799838,37.7366362 822.531218,37.9999985 822.199858,37.9999985 L819.19996,37.9999985 L819.19996,37.9999985 C818.8686,37.9999985 818.59998,37.7366362 818.59998,37.4117633 C818.59998,37.4117633 818.59998,37.4117633 818.59998,37.4117633 L818.59998,25.6470583 L818.59998,25.6470584 C818.59998,25.3221854 818.8686,25.0588231 819.19996,25.0588231 L822.199858,25.0588231 L822.199858,25.0588231 C822.531217,25.0588231 822.799838,25.3221854 822.799838,25.6470584 L822.799838,25.6470583 Z M838.999291,30.2470579 L838.999291,30.247044 C839.040646,27.6998677 837.268242,25.4677738 834.739423,24.8823503 L834.739423,24.8823504 C833.044781,24.5245939 831.278356,24.9937291 829.999595,26.1411738 L829.999595,25.6470562 L829.999595,25.6470562 C829.999595,25.3221833 829.730975,25.0588209 829.399616,25.0588209 C829.399616,25.0588209 829.399616,25.0588209 829.399615,25.0588209 L826.399717,25.0588209 L826.399717,25.0588209 C826.068358,25.058821 825.799737,25.3221833 825.799737,25.6470562 C825.799737,25.6470562 825.799737,25.6470562 825.799737,25.6470562 L825.799737,37.4117612 L825.799737,37.4117613 C825.799737,37.7366342 826.068358,38 826.399717,38 L829.399615,38 L829.399615,38 C829.730975,38 829.999595,37.7366342 829.999595,37.4117613 L829.999595,30.7764677 L829.999595,30.7764698 C829.969962,29.594964 830.809869,28.5631406 831.991528,28.3294112 L831.991528,28.3294112 C833.297648,28.1083595 834.539246,28.9672559 834.764706,30.2478111 C834.789969,30.3912934 834.801593,30.5367652 834.799428,30.6823534 L834.799428,37.4117647 L834.799428,37.4117647 C834.799428,37.7366377 835.068049,38 835.399408,38 L838.399307,38 L838.399307,38 C838.730666,38 838.999287,37.7366377 838.999287,37.4117647 L838.999291,30.2470579 Z M820.399919,18 L820.399919,18 C819.07448,18 818,19.0534482 818,20.352941 C818,21.652435 819.074481,22.705882 820.399919,22.705882 C821.725358,22.705882 822.799838,21.6524339 822.799838,20.352941 L822.799838,20.3529411 C822.799838,19.0534471 821.725358,18 820.399919,18 L820.399919,18 Z" id="linkedin"></path>
        </g>
    </g>
</svg>