<svg height="190" viewBox="0 0 630 190" width="630" xmlns="http://www.w3.org/2000/svg"><path d="m373.172801 117.046629 7.050867 2.715662c-9.569033 26.870755-35.61407 46.237709-66.191807 46.237709-30.721632 0-56.838617-19.224024-66.191807-46.380639l7.194762-2.429802c8.633714 24.012164 31.728898 40.877851 58.997045 40.877851 27.196199 0 50.435279-17.151546 59.14094-41.020781zm-191.812344-48.8104405v21.5108972c2.302323-4.5737456 5.252176-7.1464775 10.216561-8.7187025 8.273976-1.8580842 15.180947 1.7866193 18.634433 9.3618854 2.086481-6.5032944 7.194761-9.8621388 14.029785-9.8621388 6.475285.285859 11.15188 3.6447034 13.094466 9.8621388 2.158429-5.2883933 6.187495-8.3613786 11.871357-9.6477445 7.784496-1.0543983 14.037616 2.454501 17.390021 9.3025644l.165197.3451801v-22.1540801h10.360457v12.2919413h10.216561v19.1525595c0 3.4369267 4.920837 3.5005727 5.10309.1909404l.005191-.1909404v-19.1525595h10.216562v33.5169792c-.215843 3.573239-1.295058 6.360365-3.741277 8.933097-3.237642 2.858591-5.827756 3.573239-10.000718 4.002027-4.883717.415795-8.752636-.915589-12.5252-3.798664l-.353423-.274828 6.115547-7.861125c2.662062 2.501267 7.84229 2.501267 9.425138-1.214901.503633-1.429296.647528-3.215915.647528-4.716675-4.760978 5.081939-13.171425 2.844213-15.04194-3.82146l-.067059-.252033v6.932084h-10.432405v-13.5068429h-20.864808c1.556019 4.2854639 6.37992 6.0156059 10.64405 2.9499809l.22004-.162855 8.561766 1.286366c-.071947 2.072479-4.82049 10.219463-16.691847 9.076027-5.334652-1.324713-8.888805-4.281935-11.196941-9.137114l-.170782-.367701v9.933603h-10.000719v-18.9381649c-.353641-4.144957-6.47822-4.1461477-7.027486-.2072489l-.02338.2072489v18.9381649h-10.000719v-10.505322c-2.805957 6.145971-7.266709 9.433351-14.317575 9.862139-6.486798-.140071-11.315231-3.231437-14.282151-8.870525l-.17932-.348431v9.862139h-10.360457v-43.8079065zm174.472969 0v21.5108972c3.381538-6.8606184 9.856823-10.2194628 17.555218-8.9330969 5.683862 1.5722251 8.993452 4.3593513 11.295776 9.5762798 2.877905-8.3613786 10.86409-11.7916878 19.210013-8.9330968 4.172962 1.9295489 6.475286 4.6452104 7.914238 8.9330968 3.813224-8.218449 12.015252-11.7916878 20.577018-8.7901672 4.316857 1.9295489 7.050867 4.430816 8.849557 8.7901672v-16.0081095h10.000719v6.2889002h6.33139v9.2189559h-6.33139c0 3.1444501-.503633 6.2889002.503633 9.2189559.935319 2.0724789 3.669329 2.5012669 5.468019 1.0719719l.431686-.4287889.360221 8.6472379c.071464 2.072478-7.914721 5.145464-12.375473 1.929549s-4.5327-6.932083-4.5327-11.7916881h-20.792861c2.230376 5.9315761 9.35319 5.2883931 11.367723 2.2868731l8.705662 1.429295c-3.237643 9.933604-11.799409 11.291435-20.001437 8.575773-4.172962-2.001014-6.691129-4.502281-8.561767-8.718702v9.933603h-10.216561c0-6.074506 0-13.0065887-.071948-19.1525593-.359738-4.0020273-6.835023-3.7161682-6.835023.2143944v18.9381649l-10.072667.14293h-6.978918v-6.003041c0-2.358338-2.73401 6.217435-6.0436 6.003041-7.050867.500253-12.806676-3.14445-15.756528-9.43335v9.29042h-10.360457v-9.29042c-3.0218 6.003041-10.936038 9.862138-18.634432 7.93259l-1.151162-.500254s.28779 10.648252.28779 13.435378h-10.360457v-27.2995441c.287791-12.8636594 14.245628-20.5103903 24.893876-12.8636594 2.230376 1.8580841 3.669328 3.6447035 4.964385 6.2174354v-21.4394324zm-24.174399 21.2965028c-3.669329 0-6.619181 2.9300558-6.547233 6.5032945 0 3.5732387 2.949852 6.5032942 6.547233 6.5032942s6.547233-2.9300555 6.547233-6.5032942-2.949852-6.5032945-6.547233-6.5032945zm38.348079 0c-3.669328 0-6.61918 2.9300558-6.547233 6.5032945 0 3.5732387 2.949852 6.5032942 6.547233 6.5032942s6.547233-2.9300555 6.547233-6.5032942-2.949852-6.5032945-6.547233-6.5032945zm-174.544917-.1429295c-3.669328 0-6.547233 2.9300557-6.547233 6.5032945 0 3.5732387 2.949853 6.5032947 6.547233 6.5032947 3.597381 0 6.547234-2.930056 6.547234-6.5032947 0-3.5732388-2.949853-6.5032945-6.547234-6.5032945zm50.219437 5.2169285h12.734728c-2.086481-6.5747592-10.792143-6.4318297-12.734728 0zm174.544916-.5717182h12.590833c-2.014533-6.3603649-10.936038-6.0745058-12.590833 0zm-106.194681-69.0349721c30.721632 0 56.838617 19.5813482 66.191807 47.2382159l-3.597381 1.2149012-3.597381 1.2149011c-8.633714-24.4409528-31.728899-41.6639635-58.997045-41.6639635-27.196199 0-50.435279 17.5088698-59.140941 41.7354283l-7.050866-2.6441966c9.569033-27.3710087 35.61407-47.0952864 66.191807-47.0952864z" fill="#fff"/></svg>