<svg height="190" viewBox="0 0 630 190" width="630" xmlns="http://www.w3.org/2000/svg"><path d="m443.798253 78.3235451c2.744666-.3651431 5.53551-.3151031 8.268876.0995845 4.899329.745645 9.464601 2.6298231 13.482611 5.550968-2.006303 2.7715204-4.011132 5.54205-6.015961 8.3135704-2.521143-1.5517344-5.221595-2.7194987-8.12985-3.3323644-1.919841-.4037878-3.923196-.5648075-5.883812-.3369027-.986449.1144478-1.928193.3190667-2.859621.6807417-.719694.2799265-1.372578.6287199-1.977809 1.1187152-.859704.6951096-1.54452 1.6399236-1.679616 2.7948064-.113481.9785042.204364 1.8817008.803209 2.630814.711835.8908104 1.74004 1.4922809 2.742209 1.9322362.942236.4132013 1.91149.7094776 2.899904.9730544 1.150529.3066806 2.311375.5598531 3.47222.8194664 2.643958.5905708 5.256966 1.2108678 7.794811 2.2141448 4.49011 1.775675 8.759645 4.797396 10.508528 9.731534.757522 2.138342.943218 4.396086.63225 6.631534-.374339 2.696708-1.451671 5.259646-3.095424 7.41731-1.279239 1.678073-2.841935 3.035593-4.636505 4.119627-2.44991 1.480886-5.187207 2.373678-7.974121 2.863178-2.181682.382979-4.343223.512786-6.55389.431037-2.749578-.103052-5.391571-.52864-8.038476-1.28568-4.787813-1.368915-9.101069-3.712866-12.92061-6.911461 2.137469-2.881509 4.275921-5.762027 6.415355-8.643536 2.373765 1.845037 4.844308 3.331373 7.670031 4.390635 1.848117.693623 3.71392 1.149433 5.670606 1.39121 1.752813.2175 3.596018.265559 5.356691.041122 1.266467-.160524 2.540302-.472159 3.698691-1.047371.880337-.436983 1.699757-1.033003 2.310884-1.827202.514348-.668356.856265-1.450168.938796-2.301839.088918-.918059-.135096-1.804906-.598845-2.590187-.547262-.925987-1.370613-1.626547-2.266179-2.166582-1.138739-.688669-2.452366-1.154883-3.712937-1.519035-1.554836-.449864-3.133743-.779335-4.712159-1.122679-4.507304-.981477-9.744128-2.173518-13.49391-5.456338-1.788184-1.565606-3.115075-3.514688-3.833296-5.8076082-.781594-2.4945665-.760961-5.1362803-.080567-7.6372877.551684-2.024389 1.515535-3.8951901 2.826215-5.5237184 1.827975-2.2701299 4.158018-3.8803268 6.802958-4.995574 1.998443-.8427522 4.026361-1.3540517 6.168743-1.6399236zm-205.301675 3.4656392c4.687105-2.2438713 10.034954-3.0410426 15.158788-2.4891167 5.29381.569762 10.015794 2.4955575 14.200341 5.8204902l-7.252461 9.2841475c-2.456296-1.5829474-5.11843-2.6501363-8.038476-3.0073523-1.632454-.199169-3.211853-.1664696-4.834482.1085025-1.261063.2135369-2.456296.5588622-3.63188 1.0701616-2.760877 1.1979865-4.846273 3.0712648-6.250783 5.772432-1.332786 2.5634339-1.883488 5.5727679-1.727268 8.4339639.157695 2.885968 1.034101 5.772927 2.706348 8.162459 1.696809 2.426691 4.068609 4.136472 6.853067 5.054532 2.749087.905674 5.737417.986927 8.542507.355234 2.829654-.637142 5.445118-1.990698 7.571288-3.994279 2.748596 2.861692 5.498665 5.723383 8.247261 8.584579-3.633354 3.841187-8.333722 6.30999-13.43545 7.399474-5.042285 1.076107-10.449085.792217-15.337606-.895269-4.974983-1.717709-9.233709-4.816223-12.270183-9.188032-2.999629-4.315823-4.545131-9.493225-4.792725-14.69639-.246613-5.183843.789453-10.526229 3.235433-15.1442737 2.493141-4.7077202 6.276329-8.3432971 11.056281-10.631263zm-49.257585-2.4030765c6.960653.0239487 13.7474 2.6904347 18.66687 7.7647844 4.926839 5.0817814 7.414576 11.9897737 7.390678 18.9978458-.023262 7.006586-2.557669 13.896247-7.518897 18.943347-4.954349 5.040164-11.760255 7.659088-18.719434 7.634489-6.960653-.02346-13.748383-2.690441-18.667853-7.764295-4.926348-5.081782-7.414085-11.989774-7.390186-18.997846.023753-7.0065863 2.558651-13.8962472 7.519878-18.9433474 4.953859-5.040164 11.758783-7.6590873 18.718944-7.6349778zm188.614579 1.051502c0 3.990811 0 8.1119242.000492 12.1195804.000491 2.5228069 0 5.1417302.012281 7.6640418.005895 1.481877.016703 2.963258.051582 4.445134.055021 2.271616.157694 4.624486.587546 6.87133.320793 1.672127.83465 3.298178 1.713513 4.777578 2.169401 3.654403 6.023821 5.330495 10.07671 5.278968 3.988534-.051526 7.910257-1.785089 10.14303-5.313649.921112-1.454132 1.465918-3.068293 1.77885-4.745375.165063-.891801.263315-1.810356.32374-2.714544.091374-1.401614.097269-2.852773.106603-4.256369.015491-2.392505.016716-12.5336013.016074-19.0313336l-.000845-5.0953616h12.00343v51.0813902h-10.499194c-.112989-1.596324-.22647-3.282819-.338477-4.917293-2.331517 2.429663-5.658816 4.090891-8.795015 5.019851-3.265401.967109-6.73713 1.268835-10.118959.865047-6.892368-.821944-13.073883-4.562555-16.256752-11.021179-1.552871-3.15004-2.181191-6.507177-2.485281-9.942098-.127727-1.447196-.196012-2.919163-.240225-4.370818-.060917-1.985249-.077619-4.019051-.08941-6.0043-.012303-2.121034-.016906-6.4416868-.018467-10.6922244l-.0002-10.0183758zm-88.362315 0c0 3.990811 0 8.1119242.000982 12.1195804.000983 2.5228069 0 5.1417302.012773 7.6640418.005895 1.481877.016703 2.963258.051582 4.445134.05453 2.271616.157695 4.624486.587546 6.87133.31981 1.672127.833667 3.298178 1.71253 4.777578 2.169892 3.654403 6.024804 5.330495 10.076711 5.278968 3.988534-.051526 7.910257-1.785089 10.143521-5.313649.92062-1.454132 1.466409-3.068293 1.77885-4.745375.165063-.891801.263806-1.810356.32374-2.714544.090883-1.401614.097269-2.852773.106112-4.256369.019094-2.881881.017105-17.0064236.016381-22.4637844l-.00017-1.6629108h11.727342v51.0813902h-10.223597c-.112989-1.596324-.22647-3.282819-.338969-4.917293-2.331025 2.429663-5.658815 4.090891-8.794523 5.019851-3.265401.967109-6.736639 1.268835-10.11945.865047-6.892368-.821944-13.072901-4.562555-16.256261-11.021179-1.552871-3.15004-2.181683-6.507177-2.485281-9.942098-.127727-1.447196-.196012-2.919163-.240717-4.370818-.060916-1.985249-.077619-4.019051-.089409-6.0043-.020327-3.504317-.019636-13.0128865-.018929-18.2894266l.000261-2.4211736zm63.446136-20.4376098v71.519991h-12.662699v-71.519991zm-163.738683 31.3046089c-.992835-.0033723-1.986162.0872942-2.962294.274077-.949604.181333-1.882505.4538278-2.779545.8169891-.859703.3487935-1.687475.7818126-2.460717 1.297571-.750153.4999042-1.450198 1.0756115-2.08294 1.7191948-.635689.646556-1.203585 1.3604926-1.695336 2.124469-.510909.7941987-.94027 1.6433918-1.287099 2.5242932-.363532.926978-.636672 1.890124-.820894 2.870114-.1911 1.013186-.286896 2.043712-.29043 3.074733-.003343 1.031517.086066 2.063034.269306 3.07721.177836.980982.443607 1.946109.801735 2.87606.340443.883874.764399 1.735544 1.270396 2.534202.486347.766453 1.04933 1.484849 1.680598 2.135864.628321.647547 1.323944 1.228704 2.070167 1.733563.770294.520713 1.594628.960172 2.452858 1.314416.894091.369106 1.825519.648042 2.773158.83532.97515.193719 1.967494.291818 2.96082.295336.992835.002427 1.986652-.087249 2.962293-.274031.950587-.181333 1.882506-.453828 2.779545-.81699.860687-.348793 1.687476-.781812 2.461701-1.297571.750152-.499408 1.450197-1.075611 2.082448-1.719194.635198-.646061 1.202602-1.359997 1.694353-2.123974.512383-.794199.941744-1.643392 1.287099-2.524293.365006-.926978.637655-1.889628.821877-2.870114.190117-1.013186.286895-2.043712.290405-3.075724.002877-1.031517-.086041-2.063034-.269772-3.07721-.176853-.980982-.443607-1.946604-.801735-2.875564-.340443-.8838743-.763908-1.7355446-1.270397-2.5342023-.486346-.7664537-1.048838-1.4848492-1.679615-2.1358642-.628812-.6480423-1.324927-1.2287041-2.071149-1.7335627-.769804-.5212084-1.594137-.9601728-2.452367-1.3144161-.895074-.3696022-1.825028-.6485378-2.77365-.8358161-.974658-.1932236-1.967984-.2913218-2.960819-.2948857z" fill="#fff"/></svg>