<svg height="190" viewBox="0 0 630 190" width="630" xmlns="http://www.w3.org/2000/svg"><path d="m447.862797 65.8802871c.453799 0 2.593897.03675 2.593897 2.2246919 0 1.0847835-.833183 1.7200348-1.760714 1.8886914v-.112219c.397324.0564376.738171.4672509.927531.8970955l1.419866 3.2353191h-1.174031l-1.381994-3.0108811c-.189359-.4114696-.302975-.6726576-.984006-.6726576h-.928195v3.6835387h-1.079019v-8.1335789zm-1.287646 3.514882h1.003939c1.17403 0 1.741445-.6726576 1.741445-1.2901901 0-.4856259-.132219-1.2908463-1.49561-1.2908463h-1.249774zm1.439134-6.3951691c3.843007 0 6.985715 3.1040688 6.985715 6.9004827 0 3.7957576-3.142708 6.8998264-6.985715 6.8998264s-6.985715-3.1040688-6.985715-6.8998264c0-3.7964139 3.142708-6.9004827 6.985715-6.9004827zm0 12.8644947c3.369275 0 6.038916-2.6361616 6.038916-5.964012 0-3.3285067-2.669641-5.9646683-6.038916-5.9646683-3.36994 0-6.03958 2.6361616-6.03958 5.9646683 0 3.3278504 2.66964 5.964012 6.03958 5.964012zm-219.844715 25.2092383h14.180722s-.59067-6.6117321-6.99103-6.6117321c-6.401026 0-7.189692 6.6117321-7.189692 6.6117321zm7.38636-14.5845294c19.101419 0 18.314081 18.3815994 18.314081 18.3815994v2.915725h-25.896445c0 4.180977 3.544017 7.779203 8.369702 7.779203 4.823691 0 7.286033-4.57079 7.286033-4.57079l9.155712 4.473009c-4.233022 6.323637-9.943715 8.849549-16.342746 8.849549-19.891415 0-20.284752-16.336721-20.284752-18.378975 0-2.04291.296996-19.4493204 19.398415-19.4493204zm42.536187 27.5199454c-.591334 0-7.97703.099048-7.97703-8.847626 0-8.9492998 8.075364-9.2400191 8.075364-9.2400191s9.058042.2907193 9.058042 9.0451121c0 8.751768-8.566371 9.042533-9.156376 9.042533zm8.666698-50.3030226v26.9627419s-5.515352-4.1796647-11.820037-4.1796647c-6.298704 0-16.933415 4.3758838-16.933415 18.1840684 0 13.810809 9.059371 19.0641 16.837739 19.0641 7.779033 0 12.112382-5.058385 12.112382-5.058385v4.490072h11.223387v-59.4629326zm75.718001 24.6291122h11.421385v19.9369154s.394666 6.712795 6.794362 6.712795c6.399697 0 6.302691-6.712795 6.302691-6.712795v-19.8397902h11.517726v20.5216352s1.479664 16.046001-17.526743 16.046001c-19.001092 0-18.509421-14.101528-18.509421-16.629409 0-2.530505 0-20.0353524 0-20.0353524zm42.684353 34.8338204h11.273884v-59.4629326h-11.273884zm19.149258 0h11.128375v-59.4629326h-11.128375zm-84.728205-9.936958h-10.681885v-37.199606h5.710028s7.758436-.5768449 7.758436 6.1090436-6.172465 6.0965748-6.172465 6.0965748h-3.553984v10.0222702h6.937877c1.819183 0 7.612927.8708455 7.612927 7.4576404 0 6.584169-7.610934 7.514077-7.610934 7.514077zm9.601538-21.1037298s5.217692-4.0064143 5.217692-11.6031796c0-7.5987341-5.587774-14.4519667-17.488206-14.4519667-11.897774 0-19.927958 0-19.927958 0l.000664 57.0958341h24.546344s17.59252-.196219 17.59252-15.897688c0-9.1173001-3.583219-12.6085572-9.941056-15.1429998zm-174.18376-27.2724925v58.3131803h11.91372v-47.1857828h5.612358s8.762375-.3891571 8.762375 7.4891401c0 7.8769846-7.777704 7.6827342-7.777704 7.6827342h-2.856342v13.4216525l11.916377 18.592256h13.980068l-16.639078-23.8435795s13.68573-1.1661586 13.68573-15.8530632c0-14.6842796-10.339045-18.6165376-24.123108-18.6165376s-14.474396 0-14.474396 0z" fill="#fff" fill-rule="evenodd"/></svg>