<?xml version="1.0" encoding="UTF-8"?>
<svg width="24px" height="20px" viewBox="0 0 24 20" version="1.1" xmlns="http://www.w3.org/2000/svg" xmlns:xlink="http://www.w3.org/1999/xlink">
    <title>twitter-hover copy</title>
    <g id="About" stroke="none" stroke-width="1" fill="none" fill-rule="evenodd">
        <g id="Artboard" transform="translate(-204.000000, -18.000000)" fill="#00A8E8">
            <path d="M227.964822,20.8984792 L227.964822,20.8984791 C227.345571,21.7083059 226.597048,22.4147302 225.748164,22.9904597 C225.748164,23.2020083 225.748164,23.4135569 225.748164,23.6368581 L225.748165,23.6370043 C225.762102,31.5558088 219.228722,37.9863455 211.155485,38 C211.079116,38 211.002747,37.9996502 210.926384,37.9986056 L210.926385,37.9986056 C208.662314,38.0060207 206.42724,37.4991734 204.39623,36.5177654 L204.39623,36.5177654 C204.286719,36.4708859 204.216085,36.3646536 204.216501,36.2474533 L204.216501,36.1181748 L204.216501,36.1181748 C204.216501,35.9494131 204.355978,35.8126046 204.528031,35.8126046 C204.528031,35.8126046 204.528031,35.8126046 204.528031,35.8126046 L204.528032,35.8126046 C206.753616,35.740723 208.899797,34.9842109 210.662927,33.6501079 L210.662926,33.6501079 C208.648511,33.6103384 206.836064,32.440379 206.001953,30.6414167 L206.001953,30.6414167 C205.935252,30.4858533 206.009749,30.3067057 206.168347,30.2412808 C206.214165,30.2223796 206.26393,30.2145066 206.313484,30.2183195 L206.313484,30.2183195 C206.925708,30.2786536 207.544052,30.2227908 208.134738,30.0537817 L208.134738,30.0537816 C205.910998,29.6012181 204.240105,27.7912694 204.00097,25.5760031 L204.00097,25.5760028 C203.987514,25.4077582 204.115656,25.2606697 204.287183,25.2474714 C204.336737,25.2436585 204.386502,25.2515315 204.432321,25.2704328 L204.432321,25.2704327 C205.029076,25.5285913 205.673266,25.664563 206.325466,25.6700245 L206.325467,25.6700247 C204.37694,24.4161762 203.535305,22.0313066 204.276556,19.864191 L204.276556,19.8641911 C204.39652,19.5340272 204.766641,19.3617667 205.103244,19.4794359 C205.204429,19.5148079 205.295044,19.5743337 205.366912,19.6526425 L205.366912,19.6526425 C207.996324,22.3962868 211.609177,24.0312048 215.44372,24.21269 L215.44372,24.2126901 C215.3455,23.8284403 215.297189,23.4335543 215.299936,23.0374201 L215.299936,23.0374279 C215.348787,20.2078244 217.726973,17.9528339 220.611768,18.0007497 C222.006609,18.023918 223.334052,18.5933302 224.29837,19.5821224 L224.298371,19.5821223 C225.296334,19.3957327 226.26112,19.0670931 227.162053,18.6066494 L227.162053,18.6066494 C227.228047,18.5662546 227.311734,18.5662546 227.377728,18.6066494 L227.377728,18.6066494 C227.418911,18.6713807 227.418911,18.7534665 227.377728,18.818198 L227.377728,18.818198 C226.941346,19.7979077 226.204138,20.6196165 225.268907,21.1687379 L225.268907,21.1687379 C226.087875,21.0756265 226.892448,20.886223 227.665294,20.6046083 L227.665294,20.6046083 C227.73037,20.5611822 227.815894,20.5611822 227.880969,20.6046084 L227.880969,20.6046084 C227.983276,20.6504983 228.028285,20.7690486 227.9815,20.8693979 C227.976784,20.8795127 227.971215,20.8892237 227.964852,20.8984295 L227.964822,20.8984792 Z" id="twitter-hover-copy"></path>
        </g>
    </g>
</svg>