<svg height="190" viewBox="0 0 630 190" width="630" xmlns="http://www.w3.org/2000/svg"><path d="m268.992742 61v68.820978h-10.134131v-6.390888c-4.580262 4.816953-10.914294 7.569728-18.030087 7.569728-14.62007 0-25.828524-10.715986-25.828524-26.93107v-43.0574595h10.231651v42.4607825c0 11.10947 7.211715 18.287326 16.763921 18.287326h.003197c9.453086 0 16.762322-7.374598 16.762322-18.287326v-42.472071zm17.448162.0016126v25.0700847c4.637956-4.7922026 11.000713-7.4877054 17.640006-7.4729688 14.62007 0 26.119486 11.6996954 26.119486 26.2505365 0 14.45247-11.499416 26.150644-26.119486 26.150644-6.670557.018113-13.06715-2.67503-17.74552-7.471448v6.289292h-9.752042l.014388-68.8161404zm73.196096 17.6953874c14.326086.0000995 24.853496 11.109569 24.853496 26.053894v3.244629h-40.442199c1.365286 8.159953 8.089399 14.255728 16.466563 14.255728 5.755304 0 10.62493-2.360903 14.327509-7.374597l7.115793 5.308807c-4.971943 6.686001-12.378699 10.715986-21.443302 10.715986-14.911033 0-26.412048-11.207841-26.412048-26.150553 0-14.0157836 10.794246-25.8156397 25.101347-26.0502352zm55.363.5951632v9.2420337l-4.097456-.0048379c-6.433151 0-11.110934 5.0136944-11.110934 12.780163v28.511456h-9.844767v-50.1401688h9.752043v6.198984c2.436412-4.0315973 6.43315-6.58763 11.891097-6.58763zm-111.600134 8.1551151c-9.454685 0-17.154003 7.668098-17.154003 17.4019867 0 9.633905 7.601797 17.401986 17.154003 17.401986 9.357164 0 17.056482-7.768081 17.056482-17.401986 0-9.7338887-7.699318-17.4019867-17.056482-17.4019867zm56.043868-.098371c-7.309236 0-13.449825 5.1120654-15.205193 12.7817757h30.311266c-1.656248-7.6697103-7.796837-12.7817757-15.106073-12.7817757z" fill="#fff" fill-rule="evenodd"/></svg>