<svg height="190" viewBox="0 0 630 190" width="630" xmlns="http://www.w3.org/2000/svg"><path d="m302.145321 83.6054724h37.353913c-.124929 3.4263552 0 6.8527104-.124929 10.2790656-.42476.8660018-1.174337 1.5186409-1.773999 2.2591353-6.421375 7.1162757-12.680341 14.3831617-19.139195 21.4743357 7.320867.138058 14.654227 0 21.975094.125508v10.843849c-12.780285-.125507-25.548077-.125507-38.328363 0v-10.417124c6.671234-7.543001 13.367454-15.060902 20.126139-22.5285988.199887-.3890733 1.011929-.7530451.587168-1.2550752-6.883614.2008121-13.779721 0-20.663335.1255076-.124929-3.6146165 0-7.2417837 0-10.8564002m-17.577577 0c4.609898-.1255075 9.232288 0 13.842186 0-.12493 14.9730467 0 29.9586436 0 44.9442416h-13.8172v-44.8940386m-31.869509-.0753045h13.180059c0 2.5227011 0 5.0454022-.137422 7.5681032 1.149351-1.2676259 1.9489-2.7988176 3.13573-4.041342 2.973321-3.2506446 7.783106-4.6061258 12.018215-3.4765582v11.8479095c-3.385588-.3890733-7.12098-.2384642-9.994358 1.819859-3.073265 2.17128-4.434996 6.0745636-4.397517 9.7268326v21.461785h-13.792214v-44.9191398m-91.748207 0h14.254453c2.848392 9.6640787 5.93415 19.2528528 8.657613 28.9294828 3.298138-9.51347 5.846699-19.3030564 8.919964-28.9043813 4.597405-.1255075 9.207303 0 13.804707 0-5.259531 14.9353944-10.406625 29.9209913-15.578705 44.8940383-4.759813 0-9.532119-.125507-14.291932 0-5.409446-14.922844-10.25671-30.0590499-15.7661-44.9442413m247.872572 1.769656c4.547433-3.6020657 11.068751-3.991139 16.328282-1.819859 3.747885 1.6190469 6.583784 4.9575469 7.870557 8.8106276 1.474168 3.9660375 1.036915 8.2583947 1.086887 12.3875917v23.746022c-4.584912.125508-9.169824 0-13.754735 0v-27.184928c0-2.3469904-.874507-4.8571407-2.823407-6.2879264-2.910856-2.020671-7.220923-1.6315977-9.732006.8911034-1.973885 2.0081202-2.860885 4.907344-2.810913 7.693611v24.900691c-4.522447-.125508-9.057387 0-13.579834 0v-44.9065893h13.292496c-.124929 2.070874-.124929 4.1291973-.124929 6.2000713 1.374224-1.5311917 2.536068-3.2757462 4.235109-4.4931691m-47.610623 7.7438137c-3.910293 1.3680319-5.684291 5.6227367-6.258967 9.4256144-.449746 4.794387-.387281 10.17866 2.723463 14.157248 3.310631 4.330009 10.631498 4.204502 13.954622 0 2.785927-3.464008 3.160716-8.18309 2.898364-12.462896-.21238-3.765226-1.486661-7.8191187-4.647376-10.1033555-2.511083-1.7320037-5.859193-1.9955695-8.670106-.9664079m-1.586604-10.253964c7.408318-1.3303797 15.603691.2259135 21.275489 5.3968232 9.719513 8.6600186 10.131781 25.4780252 1.124366 34.7781322-7.120981 7.455147-19.076731 8.84828-28.221569 4.631228-7.071008-3.200442-11.893286-10.467327-12.717821-18.148387-.337309-4.430415-.149915-9.061643 1.699041-13.1782892 2.773435-7.0535224 9.444669-12.2369828 16.840494-13.4795072m-137.035142 10.1786595c-3.060772 1.468438-4.584912 4.7943871-5.259531 7.9822779h18.389619c-.399774-2.4724979-1.236802-5.0203005-3.123237-6.764855-2.623519-2.5352518-6.808656-2.6105563-10.006851-1.2174229m-7.320867-7.831669c9.382204-5.3466201 23.012009-3.5142104 29.358427 5.710592 3.885306 5.4470262 4.984686 12.3750409 4.947207 18.9516349-10.781414.125507-21.550335 0-32.319255 0 .487225 3.351051 1.923913 6.865261 4.997179 8.609816 4.360038 2.547802 11.256145 1.832409 13.467397-3.263196 4.41001-.150609 8.832514-.125507 13.26751 0-1.39921 5.108156-5.072136 9.413064-9.744499 11.822808-5.022165 2.761165-11.006287 3.300848-16.590634 2.359541-5.859192-.953857-11.368582-4.279806-14.679213-9.275005-3.610462-5.283866-4.597405-12.011069-3.747885-18.273894.887-6.8527106 4.947208-13.354 11.043766-16.7050506m69.335859-17.583603h13.779721c-.12493 4.1040958 0 8.2332931 0 12.3373888h-13.8172c.124929-4.1040957 0-8.2207423.124929-12.324838m179.148868-6.4259848c2.37366-.1506091 4.74732-.1255076 7.12098-.1255076-7.133473 14.9604959-14.004594 30.0464993-21.000645 45.0697492h-5.784235c-3.22318-7.5681034-6.933585-14.9353946-10.281695-22.4407441 2.311195 0 4.634883-.1255075 6.946079 0 2.011364 4.6186766 4.372531 9.0992949 6.208994 13.793276 5.609334-12.1114753 11.381076-24.1350953 16.790522-36.321875" fill="#fff"/></svg>