<?xml version="1.0" encoding="UTF-8"?>
<svg width="85px" height="48px" viewBox="0 0 85 48" version="1.1" xmlns="http://www.w3.org/2000/svg" xmlns:xlink="http://www.w3.org/1999/xlink">
    <title>logo-webbys</title>
    <g id="logo-webbys" stroke="none" stroke-width="1" fill="none" fill-rule="evenodd">
        <path d="M80.6438699,39.1377048 C81.9052516,39.1377048 82.733759,39.4823036 83.6104609,40.1837149 L83.2029982,40.6883996 C82.3867585,39.9869883 81.5705188,39.7161074 80.6188964,39.7161074 C79.3456851,39.7161074 78.5053481,40.4428184 78.5053481,41.3413926 L78.5053481,41.3658198 C78.5053481,42.2766077 78.9750255,42.830583 81.0272353,43.2488999 C83.029498,43.6550031 83.8707112,44.368628 83.8707112,45.6244509 L83.8707112,45.6493143 C83.8707112,47.0399234 82.670668,48.0000019 81.0022618,48.0000019 C79.617765,48.0000019 78.5544189,47.544608 77.5160463,46.6216065 L77.9362148,46.1413491 C78.8887135,47.0150599 79.7658536,47.4215993 81.039503,47.4215993 C82.3376878,47.4215993 83.2275336,46.6957607 83.2275336,45.7108187 L83.2275336,45.6859552 C83.2275336,44.7751674 82.7451504,44.2460555 80.7796908,43.8517297 C78.7029456,43.4334129 77.8621705,42.7324378 77.8621705,41.426888 L77.8621705,41.4024607 C77.8621705,40.1222106 79.0368021,39.1377048 80.6438699,39.1377048 Z M24.9735177,0 L24.9735177,47.9821177 L19.978376,47.9821177 L19.978376,38.4995426 C19.978376,38.4912548 19.8013707,38.3416378 19.8013707,38.3342224 C19.8013707,37.2131857 17.822329,36.2579053 14.832517,35.7130902 C13.7840674,35.487138 12.9800953,35.3724171 12.9800953,35.3724171 C12.9800953,35.3724171 19.420196,34.5148458 19.420196,32.1061435 C19.420196,29.9574171 12.387741,29.4086761 12.387741,29.4086761 L12.387741,29.4086761 L12.4356931,29.4005552 C13.048593,29.2952068 19.3308171,28.1692374 19.3308171,26.2771886 C19.3308171,24.702939 11.9351508,23.5330477 11.9351508,23.5330477 C11.9351508,23.5330477 19.1524974,22.5372007 19.1524974,20.3832398 C19.1524974,18.5459609 12.4587184,17.5727963 12.4587184,17.5727963 C12.4587184,17.5727963 18.9605956,16.8993018 18.9605956,14.5547211 C18.9605956,12.7571365 12.1099654,11.6103639 12.1099654,11.6103639 C12.1099654,11.6103639 18.8975046,10.7824542 18.8975046,8.72533 C18.8975046,6.04880023 9.92763047,5.42677751 9.92763047,5.42677751 L9.92763047,5.42677751 L8.52604656,7.14715453 C8.52604656,7.14715453 14.6686556,7.70287469 14.6686556,8.65815503 C14.6686556,9.11123208 11.3025367,9.56646985 7.7501643,9.92078326 L7.08268814,9.98600915 C4.07621048,10.273977 1.07862325,10.4855086 -4.97379915e-14,10.5586831 L-4.97379915e-14,10.5586831 L-4.97379915e-14,0 L24.9735177,0 Z M44.5891205,39.2362862 L47.1237134,46.9286921 L49.8436362,39.2611497 L50.5109111,39.2611497 L47.3703817,47.9384976 L46.8511954,47.9384976 L44.3170406,40.455032 L41.7824476,47.9384976 L41.2632613,47.9384976 L38.1231701,39.2611497 L38.840392,39.2611497 L41.5603147,46.9286921 L44.0949077,39.2362862 L44.5891205,39.2362862 Z M34.352607,39.1992091 L38.3829823,47.8774294 L37.6780281,47.8774294 L36.5778789,45.4648013 L31.4718898,45.4648013 L30.3713025,47.8774294 L29.7040277,47.8774294 L33.7344029,39.1992091 L34.352607,39.1992091 Z M54.9001163,39.1992091 L58.9300535,47.8774294 L58.2259755,47.8774294 L57.1253882,45.4648013 L52.0193992,45.4648013 L50.91925,47.8774294 L50.251537,47.8774294 L54.2819122,39.1992091 L54.9001163,39.1992091 Z M63.8397594,39.2615859 C65.7070775,39.2615859 66.9307799,40.2700828 66.9307799,41.7104187 L66.9307799,41.7357183 C66.9307799,43.1756181 65.8551661,44.0000381 64.396625,44.197201 L67.2528068,47.8778656 L66.436129,47.8778656 L63.6798413,44.3075599 L60.8481949,44.3075599 L60.8481949,47.8774294 L60.2054554,47.8774294 L60.2054554,39.2615859 L63.8397594,39.2615859 Z M71.7164945,39.2615859 C74.4364173,39.2615859 76.3155649,41.1198024 76.3155649,43.544208 L76.3155649,43.5690714 C76.3155649,45.993477 74.4364173,47.8774294 71.7164945,47.8774294 L68.8362155,47.8774294 L68.8362155,39.2615859 L71.7164945,39.2615859 Z M71.7160564,39.8522021 L69.4785168,39.8522021 L69.4785168,47.286377 L71.7160564,47.286377 C74.1270962,47.286377 75.6478519,45.6497505 75.6478519,43.5939349 L75.6478519,43.5690714 C75.6478519,41.5259056 74.1270962,39.8522021 71.7160564,39.8522021 Z M54.5789657,39.9014928 L52.2914791,44.8863987 L56.8533083,44.8863987 L54.5789657,39.9014928 Z M34.0310182,39.9014928 L31.7435316,44.8863987 L36.3053608,44.8863987 L34.0310182,39.9014928 Z M63.8029563,39.8522021 L60.8481949,39.8522021 L60.8481949,43.7295934 L63.7661532,43.7295934 C65.2124266,43.7295934 66.2880404,43.0033187 66.2880404,41.7601456 L66.2880404,41.7357183 C66.2880404,40.5784769 65.373221,39.8522021 63.8029563,39.8522021 Z M49.5154754,25.3546234 C50.0850469,25.3546234 51.7403092,25.4095847 52.9718979,26.7273481 C54.2232026,28.063432 54.2963706,29.931245 54.3331737,31.0112788 L47.4737808,31.0112788 C47.4558174,32.2007992 48.1362362,33.3907557 49.6622496,33.3907557 C51.2071027,33.3907557 51.7403092,32.3835674 52.0899384,31.7065834 L54.2236407,32.7870534 C53.8919749,33.2817054 53.5616234,33.7576008 53.0643437,34.2151757 C52.2358363,34.983762 50.985846,35.5700162 49.4418693,35.5700162 C46.5909451,35.5700162 44.5873679,33.7571646 44.5873679,30.6269857 C44.5873679,28.3203544 45.7265109,25.3546234 49.5154754,25.3546234 Z M59.9719311,25.5387002 C61.0177519,25.5387002 61.9649931,25.5818841 62.5722438,25.779047 C63.8025182,26.1720642 64.2971691,27.1426116 64.2971691,28.0865507 C64.2971691,28.6217694 64.1552144,28.9445582 64.1131537,29.0427034 C63.6605635,30.0559985 62.7001784,30.2527252 62.1630287,30.3661375 C62.7707176,30.4647189 63.5768803,30.5912172 64.1276121,31.2097503 C64.4811845,31.5905539 64.6779057,32.1384224 64.6779057,32.701558 C64.6779057,33.4758149 64.2686905,34.5602107 63.0257104,35.1076431 C62.2756286,35.4313043 61.4703421,35.474052 60.3255035,35.474052 L56.1137417,35.474052 L56.1137417,25.5387002 L59.9719311,25.5387002 Z M70.5729703,25.5387002 C71.6174767,25.5387002 72.565156,25.5818841 73.1728449,25.779047 C74.4026811,26.1720642 74.897332,27.1426116 74.897332,28.0865507 C74.897332,28.6217694 74.7562535,28.9445582 74.7133166,29.0427034 C74.2616026,30.0559985 73.3012175,30.2527252 72.7631916,30.3661375 C73.3717568,30.4647189 74.1770432,30.5912172 74.727775,31.2097503 C75.0813474,31.5905539 75.2789449,32.1384224 75.2789449,32.701558 C75.2789449,33.4758149 74.8688534,34.5602107 73.6263114,35.1076431 C72.8753533,35.4313043 72.0709432,35.474052 70.9261046,35.474052 L66.7143427,35.474052 L66.7143427,25.5387002 L70.5729703,25.5387002 Z M32.6289962,25.5387002 C33.4199395,29.0125137 33.6896928,30.2094494 33.8957325,31.4598588 L33.9390753,31.7294713 C33.9960101,32.0923108 34.0504113,32.4731034 34.1129489,32.9262015 C34.4805415,30.9563175 34.5795593,30.5768226 35.1022507,28.6065023 L35.9219954,25.5391364 L38.127,25.539 L38.4248644,26.6087176 C38.6247824,27.3217933 38.8288545,28.0343519 39.0449995,28.7465229 C39.5970457,30.6618818 39.6960635,30.9711483 40.006699,32.8982847 C40.3033143,30.9284006 40.3742917,30.5912172 40.8264438,28.5641908 C41.0384996,27.551332 41.2645757,26.5380369 41.4766315,25.538264 L43.9503242,25.538264 L41.4209888,35.4736158 L38.8482783,35.4736158 C38.5376428,34.3756977 38.2401513,33.2782158 37.9150574,32.1951286 C37.378784,30.3661375 37.3498673,30.2950367 37.053252,28.9013743 C36.7982592,30.1266631 36.7702188,30.2243721 36.2050286,32.1249002 L35.2442054,35.4736158 L32.671495,35.4736158 L30.1417214,25.5387002 L32.6289962,25.5387002 Z M78.0913135,25.5387002 L80.2399123,28.9445582 C80.3665324,28.6632085 80.395011,28.6065023 80.6500037,28.1990906 L82.3595943,25.5387002 L85.2000034,25.5387002 L81.4268116,30.7739855 L81.4268116,35.4736158 L78.9684535,35.4736158 L78.9684535,30.8442138 L75.2219877,25.5387002 L78.0913135,25.5387002 Z M1.86517468e-14,30.8747479 C2.65726991,31.0426853 14.477192,31.174418 14.477192,32.2775706 C14.477192,32.8806622 11.203803,33.4505679 7.7340649,33.8823664 L7.06087717,33.9641876 C4.02793595,34.3243688 0.996640514,34.574649 1.86517468e-14,34.6457062 L1.86517468e-14,34.6457062 Z M60.6505974,31.2668927 L58.4879784,31.2668927 L58.4879784,33.6721054 L60.2269238,33.6721054 C61.0593744,33.6590193 62.1490084,33.6311025 62.1490084,32.4913091 C62.1490084,31.2952457 61.1597066,31.2799787 60.6505974,31.2668927 Z M71.2503222,31.2668927 L69.0881413,31.2668927 L69.0881413,33.6721054 L70.8270868,33.6721054 C71.6604136,33.6590193 72.7491714,33.6311025 72.7491714,32.4913091 C72.7491714,31.2952457 71.7598696,31.2799787 71.2503222,31.2668927 Z M60.5375594,27.3964806 L58.4879784,27.3964806 L58.4879784,29.4653823 L60.3680023,29.4653823 C60.9327543,29.4509876 61.8510788,29.4226346 61.8510788,28.3958172 C61.8510788,27.4387921 61.0177519,27.3964806 60.5375594,27.3964806 Z M71.1377223,27.3964806 L69.0881413,27.3964806 L69.0881413,29.4653823 L70.9677271,29.4653823 C71.5333554,29.4509876 72.4512417,29.4226346 72.4512417,28.3958172 C72.4512417,27.4387921 71.6174767,27.3964806 71.1377223,27.3964806 Z M49.4970739,27.3685637 C48.8170932,27.3685637 48.338215,27.6983317 48.0630682,27.9910226 C47.6766359,28.4123929 47.5846282,28.8507749 47.4921824,29.2538247 L51.4090815,29.2538247 C51.354315,28.8503387 51.2802707,28.3203544 50.8754368,27.8994204 C50.5266838,27.551332 49.9930392,27.3685637 49.4970739,27.3685637 Z M1.86517468e-14,24.722568 C1.16385355,24.8221963 3.71297498,24.9626531 6.35293342,25.1647642 L7.01406638,25.2165885 C10.7627206,25.5176749 14.477192,25.9459812 14.477192,26.5607193 C14.477192,27.7040023 2.31903209,28.6357278 1.86517468e-14,28.7979946 L1.86517468e-14,28.7979946 Z M-9.76996262e-14,18.9328712 C1.39472463,19.1155179 4.41536695,19.2500515 7.34934241,19.4356514 L7.99921427,19.4777768 C11.4501642,19.7073584 14.6011833,20.0189904 14.6011833,20.5777855 C14.6011833,21.1516831 11.3027051,21.640112 7.78890374,21.9977954 L7.12829538,22.0633178 C4.15097738,22.3511743 1.15755163,22.5439368 -9.76996262e-14,22.6144083 L-9.76996262e-14,22.6144083 Z M35.5701755,12.6153711 L35.5701755,13.2059874 L32.5536375,13.2059874 L32.5536375,21.2312147 L31.910898,21.2312147 L31.910898,13.2059874 L28.8943599,13.2059874 L28.8943599,12.6153711 L35.5701755,12.6153711 Z M37.6109939,12.6153711 L37.6109939,16.6031213 L43.1494191,16.6031213 L43.1494191,12.6153711 L43.7925967,12.6153711 L43.7925967,21.2312147 L43.1494191,21.2312147 L43.1494191,17.1941738 L37.6109939,17.1941738 L37.6109939,21.2312147 L36.9682544,21.2312147 L36.9682544,12.6153711 L37.6109939,12.6153711 Z M52.2130535,12.6153711 L52.2130535,13.2059874 L46.6991636,13.2059874 L46.6991636,16.5909077 L51.656626,16.5909077 L51.656626,17.1815239 L46.6991636,17.1815239 L46.6991636,20.6401622 L52.2748301,20.6401622 L52.2748301,21.2312147 L46.055986,21.2312147 L46.055986,12.6153711 L52.2130535,12.6153711 Z M1.86517468e-14,12.6978131 C1.16196228,12.8041371 3.86902405,12.9612756 6.63187284,13.187782 L7.29526513,13.243485 C10.941426,13.5572808 14.477192,13.9945299 14.477192,14.597905 C14.477192,15.7307192 3.02179564,16.5368188 1.86517468e-14,16.7278748 L1.86517468e-14,16.7278748 Z" id="Combined-Shape" fill="#FFFFFF" fill-rule="nonzero"></path>
    </g>
</svg>